<?xml version="1.0" encoding="utf-8"?>
<!-- Generator: Adobe Illustrator 23.0.1, SVG Export Plug-In . SVG Version: 6.00 Build 0)  -->
<!DOCTYPE svg PUBLIC "-//W3C//DTD SVG 1.1//EN" "http://www.w3.org/Graphics/SVG/1.1/DTD/svg11.dtd" [
	<!ENTITY ns_flows "http://ns.adobe.com/Flows/1.0/">
	<!ENTITY ns_extend "http://ns.adobe.com/Extensibility/1.0/">
	<!ENTITY ns_ai "http://ns.adobe.com/AdobeIllustrator/10.0/">
	<!ENTITY ns_graphs "http://ns.adobe.com/Graphs/1.0/">
	<!ENTITY ns_vars "http://ns.adobe.com/Variables/1.0/">
	<!ENTITY ns_imrep "http://ns.adobe.com/ImageReplacement/1.0/">
	<!ENTITY ns_sfw "http://ns.adobe.com/SaveForWeb/1.0/">
	<!ENTITY ns_custom "http://ns.adobe.com/GenericCustomNamespace/1.0/">
	<!ENTITY ns_adobe_xpath "http://ns.adobe.com/XPath/1.0/">
]>
<svg version="1.1" xmlns:x="&ns_extend;" xmlns:i="&ns_ai;" xmlns:graph="&ns_graphs;"
	 xmlns="http://www.w3.org/2000/svg" xmlns:xlink="http://www.w3.org/1999/xlink" xmlns:a="http://ns.adobe.com/AdobeSVGViewerExtensions/3.0/"
	 x="0px" y="0px" viewBox="0 0 1500 850" enable-background="new 0 0 1500 850" xml:space="preserve">
<metadata>
	<sfw  xmlns="&ns_sfw;">
		<slices></slices>
		<sliceSourceBounds  bottomLeftOrigin="true" height="8402" width="8011.834" x="-2834" y="-3450"></sliceSourceBounds>
	</sfw>
</metadata>
<g id="FILL-BACKGROUND">
	<rect fill="#FFFFFF" width="1500" height="850"/>
</g>
<g id="N-TEXT">
	<g id="MTEXT_61_">
		<g>
			<g>
				<path fill="#1ABC9C" d="M131.654,772.307c1.389,1.092,2.305,2.574,2.747,4.447l-3.552-0.01c-0.366-0.912-0.936-1.634-1.71-2.164
					c-0.775-0.53-1.706-0.797-2.794-0.801c-0.896-0.002-1.704,0.221-2.426,0.666s-1.283,1.084-1.686,1.916
					c-0.402,0.83-0.604,1.807-0.608,2.926c-0.003,1.104,0.194,2.072,0.593,2.906c0.397,0.832,0.956,1.475,1.675,1.924
					c0.718,0.451,1.525,0.676,2.422,0.679c1.088,0.003,2.021-0.259,2.798-0.784s1.352-1.244,1.722-2.155l3.553,0.01
					c-0.454,1.871-1.378,3.349-2.772,4.433s-3.148,1.623-5.261,1.617c-1.616-0.004-3.043-0.372-4.28-1.104
					c-1.238-0.731-2.195-1.754-2.872-3.068c-0.677-1.313-1.013-2.803-1.008-4.467c0.005-1.68,0.349-3.175,1.032-4.484
					c0.684-1.311,1.643-2.328,2.877-3.053c1.233-0.725,2.667-1.084,4.299-1.08C128.515,770.666,130.265,771.215,131.654,772.307z"/>
				<path fill="#1ABC9C" d="M140.348,770.051l-0.049,17.76l-3.384-0.009l0.049-17.76L140.348,770.051z"/>
				<path fill="#1ABC9C" d="M153.042,775.198c1.03,0.547,1.841,1.337,2.43,2.37c0.589,1.034,0.882,2.247,0.878,3.639
					c-0.004,1.393-0.304,2.6-0.898,3.622s-1.409,1.808-2.442,2.356c-1.033,0.55-2.198,0.822-3.494,0.818
					c-1.297-0.003-2.459-0.282-3.49-0.838c-1.03-0.554-1.84-1.344-2.43-2.369c-0.589-1.026-0.882-2.234-0.878-3.627
					s0.304-2.604,0.898-3.634s1.409-1.815,2.442-2.357c1.034-0.541,2.198-0.81,3.495-0.806
					C150.849,774.377,152.012,774.651,153.042,775.198z M147.142,778.29c-0.658,0.662-0.989,1.626-0.992,2.89
					c-0.004,1.264,0.321,2.229,0.976,2.895s1.453,1,2.397,1.002c0.944,0.004,1.745-0.326,2.403-0.988
					c0.657-0.662,0.988-1.626,0.991-2.891c0.004-1.264-0.321-2.229-0.976-2.895c-0.654-0.665-1.453-1-2.397-1.002
					C148.6,777.298,147.799,777.628,147.142,778.29z"/>
				<path fill="#1ABC9C" d="M167.236,775.646c0.974,0.819,1.579,1.909,1.815,3.269l-3.168-0.008
					c-0.127-0.641-0.413-1.153-0.86-1.539c-0.446-0.385-1.03-0.578-1.75-0.58c-0.576-0.002-1.024,0.133-1.345,0.404
					c-0.321,0.271-0.482,0.639-0.483,1.102c-0.001,0.369,0.126,0.665,0.382,0.89c0.255,0.226,0.574,0.401,0.958,0.53
					c0.384,0.13,0.936,0.283,1.655,0.461c1.007,0.227,1.826,0.465,2.458,0.715c0.631,0.25,1.174,0.644,1.628,1.181
					c0.455,0.538,0.681,1.262,0.679,2.174c-0.003,1.136-0.45,2.056-1.34,2.757c-0.891,0.701-2.087,1.05-3.591,1.045
					c-1.729-0.004-3.111-0.396-4.148-1.175c-1.039-0.778-1.667-1.889-1.887-3.329l3.239,0.009c0.078,0.657,0.364,1.173,0.86,1.55
					c0.494,0.378,1.142,0.568,1.942,0.57c0.575,0.001,1.016-0.137,1.32-0.416s0.458-0.644,0.459-1.092
					c0.002-0.384-0.13-0.696-0.393-0.937c-0.264-0.241-0.592-0.425-0.982-0.556c-0.392-0.129-0.948-0.281-1.667-0.46
					c-0.991-0.227-1.795-0.456-2.41-0.69c-0.615-0.233-1.143-0.607-1.581-1.121c-0.438-0.513-0.656-1.217-0.654-2.113
					c0.003-1.152,0.446-2.087,1.328-2.805c0.882-0.717,2.099-1.074,3.651-1.069C164.968,774.416,166.263,774.826,167.236,775.646z"
					/>
				<path fill="#1ABC9C" d="M184.114,781.933l-9.744-0.027c0.046,1.185,0.363,2.058,0.954,2.619
					c0.589,0.562,1.325,0.843,2.205,0.846c0.784,0.003,1.437-0.188,1.957-0.57c0.521-0.382,0.854-0.901,1.001-1.558l3.576,0.01
					c-0.179,0.928-0.558,1.759-1.135,2.493c-0.578,0.735-1.32,1.309-2.226,1.722c-0.904,0.414-1.909,0.619-3.014,0.615
					c-1.296-0.003-2.447-0.282-3.453-0.837c-1.007-0.555-1.789-1.345-2.346-2.37c-0.558-1.025-0.834-2.234-0.83-3.627
					c0.004-1.392,0.287-2.604,0.851-3.634c0.562-1.03,1.349-1.815,2.358-2.356c1.009-0.542,2.162-0.811,3.458-0.807
					c1.312,0.004,2.459,0.278,3.441,0.825s1.74,1.297,2.273,2.251c0.534,0.953,0.799,2.037,0.796,3.254
					C184.237,781.117,184.196,781.5,184.114,781.933z M179.985,777.961c-0.614-0.562-1.369-0.844-2.265-0.846
					c-0.912-0.003-1.682,0.275-2.307,0.833c-0.626,0.559-0.973,1.382-1.039,2.47l6.456,0.018
					C180.882,779.348,180.6,778.523,179.985,777.961z"/>
				<path fill="#1ABC9C" d="M194.729,775.29c0.791,0.53,1.361,1.244,1.711,2.141l0.02-7.224l3.36,0.01l-0.05,17.76l-3.359-0.01
					l0.008-2.784c-0.354,0.896-0.929,1.61-1.723,2.144c-0.793,0.534-1.75,0.799-2.87,0.796s-2.127-0.278-3.021-0.824
					c-0.895-0.547-1.592-1.337-2.094-2.37c-0.501-1.033-0.75-2.246-0.746-3.639c0.004-1.392,0.26-2.603,0.767-3.633
					c0.507-1.031,1.209-1.817,2.106-2.358c0.897-0.542,1.906-0.812,3.026-0.808C192.983,774.493,193.938,774.76,194.729,775.29z
					 M190.364,778.47c-0.643,0.687-0.965,1.63-0.968,2.829c-0.004,1.2,0.313,2.142,0.952,2.822c0.638,0.683,1.485,1.025,2.541,1.027
					c1.023,0.004,1.869-0.342,2.535-1.037c0.665-0.693,1-1.625,1.004-2.793c0.003-1.184-0.327-2.125-0.988-2.822
					c-0.662-0.698-1.506-1.049-2.529-1.051C191.855,777.441,191.006,777.783,190.364,778.47z"/>
			</g>
		</g>
	</g>
	<g id="MTEXT_60_">
		<g>
			<g>
				<path fill="#1ABC9C" d="M1047.697,785.537c-0.434,0.728-1.075,1.31-1.925,1.747c-0.849,0.438-1.882,0.655-3.098,0.651
					c-1.2-0.004-2.272-0.211-3.214-0.621c-0.943-0.41-1.698-1-2.263-1.77c-0.566-0.77-0.888-1.667-0.964-2.691l3.6,0.01
					c0.078,0.688,0.353,1.262,0.823,1.719s1.098,0.688,1.882,0.689c0.704,0.002,1.245-0.186,1.622-0.561
					c0.377-0.373,0.566-0.857,0.568-1.449c0.001-0.528-0.149-0.965-0.452-1.31c-0.303-0.345-0.687-0.622-1.15-0.831
					s-1.103-0.451-1.918-0.726c-1.055-0.354-1.918-0.705-2.589-1.052c-0.671-0.346-1.242-0.847-1.712-1.504
					c-0.471-0.658-0.704-1.514-0.701-2.57c0.004-1.455,0.531-2.603,1.582-3.439c1.05-0.838,2.439-1.254,4.167-1.248
					c1.792,0.004,3.218,0.44,4.28,1.307c1.062,0.867,1.662,2.021,1.802,3.461l-3.648-0.01c-0.094-0.607-0.349-1.107-0.764-1.502
					c-0.415-0.393-0.982-0.59-1.702-0.592c-0.624-0.002-1.129,0.16-1.514,0.487s-0.579,0.802-0.58,1.427
					c-0.001,0.496,0.146,0.908,0.441,1.236c0.295,0.33,0.67,0.599,1.125,0.808s1.075,0.443,1.858,0.701
					c1.087,0.387,1.97,0.749,2.649,1.087s1.258,0.844,1.736,1.518c0.478,0.673,0.715,1.554,0.712,2.642
					C1048.349,784.016,1048.131,784.811,1047.697,785.537z"/>
				<path fill="#1ABC9C" d="M1051.078,769.348c0.385-0.344,0.89-0.514,1.514-0.513c0.624,0.002,1.127,0.175,1.51,0.521
					c0.383,0.346,0.574,0.789,0.573,1.334c-0.001,0.527-0.195,0.963-0.58,1.306c-0.385,0.343-0.89,0.514-1.513,0.512
					c-0.624-0.001-1.128-0.175-1.511-0.521c-0.383-0.345-0.574-0.781-0.572-1.309C1050.5,770.133,1050.693,769.689,1051.078,769.348
					z M1054.255,774.504l-0.037,13.296l-3.384-0.01l0.037-13.296L1054.255,774.504z"/>
				<path fill="#1ABC9C" d="M1068.916,775.864c0.91,1.011,1.362,2.429,1.356,4.252l-0.021,7.728l-3.36-0.009l0.021-7.345
					c0.003-1.055-0.267-1.876-0.81-2.462c-0.542-0.585-1.286-0.88-2.229-0.882c-0.96-0.003-1.729,0.307-2.306,0.93
					c-0.578,0.622-0.869,1.518-0.872,2.686l-0.02,7.056l-3.384-0.009l0.037-13.297l3.384,0.01l-0.007,2.664
					c0.354-0.895,0.937-1.594,1.746-2.096c0.809-0.501,1.742-0.75,2.798-0.748C1066.784,774.347,1068.006,774.854,1068.916,775.864z
					"/>
				<path fill="#1ABC9C" d="M1081.349,775.203c0.798,0.529,1.365,1.244,1.698,2.141l0.008-2.76l3.36,0.009l-0.037,13.344
					c-0.003,1.231-0.25,2.34-0.741,3.322c-0.491,0.983-1.221,1.753-2.19,2.31c-0.97,0.558-2.143,0.834-3.519,0.83
					c-1.92-0.005-3.471-0.465-4.652-1.381c-1.182-0.914-1.898-2.156-2.15-3.726l3.336,0.009c0.19,0.673,0.561,1.197,1.112,1.576
					c0.551,0.377,1.258,0.567,2.123,0.57c0.992,0.002,1.792-0.288,2.402-0.87c0.609-0.583,0.916-1.466,0.919-2.649l0.008-2.832
					c-0.338,0.895-0.909,1.609-1.71,2.143c-0.802,0.535-1.763,0.8-2.882,0.797c-1.12-0.004-2.127-0.278-3.021-0.824
					c-0.895-0.547-1.592-1.337-2.094-2.371c-0.501-1.033-0.75-2.245-0.746-3.637c0.004-1.393,0.26-2.604,0.767-3.635
					c0.507-1.03,1.208-1.816,2.106-2.357c0.897-0.542,1.906-0.811,3.026-0.809C1079.591,774.406,1080.55,774.672,1081.349,775.203z
					 M1076.972,778.383c-0.642,0.686-0.964,1.629-0.968,2.829s0.314,2.142,0.952,2.823c0.638,0.682,1.485,1.023,2.541,1.026
					c1.024,0.003,1.869-0.343,2.535-1.036c0.666-0.695,1-1.626,1.004-2.794c0.003-1.185-0.327-2.125-0.988-2.822
					c-0.662-0.698-1.505-1.049-2.529-1.052C1078.463,777.354,1077.614,777.696,1076.972,778.383z"/>
				<path fill="#1ABC9C" d="M1092.883,770.146l-0.049,17.76l-3.384-0.009l0.049-17.76L1092.883,770.146z"/>
				<path fill="#1ABC9C" d="M1108.306,781.949l-9.744-0.026c0.045,1.185,0.363,2.058,0.954,2.618
					c0.589,0.562,1.325,0.844,2.206,0.847c0.784,0.002,1.436-0.188,1.957-0.571c0.521-0.382,0.854-0.9,1-1.557l3.576,0.01
					c-0.179,0.928-0.557,1.759-1.135,2.492c-0.578,0.735-1.32,1.309-2.225,1.723s-1.91,0.619-3.014,0.615
					c-1.296-0.004-2.447-0.282-3.454-0.838c-1.007-0.555-1.789-1.344-2.346-2.369c-0.558-1.026-0.834-2.234-0.83-3.627
					s0.287-2.604,0.851-3.634c0.562-1.03,1.349-1.816,2.358-2.357c1.009-0.541,2.162-0.81,3.458-0.806
					c1.312,0.003,2.459,0.278,3.441,0.824c0.982,0.547,1.74,1.297,2.273,2.251c0.534,0.954,0.799,2.038,0.795,3.255
					C1108.429,781.135,1108.388,781.518,1108.306,781.949z M1104.177,777.979c-0.614-0.562-1.37-0.844-2.265-0.846
					c-0.912-0.004-1.681,0.274-2.307,0.832c-0.625,0.559-0.972,1.383-1.039,2.471l6.456,0.018
					C1105.074,779.365,1104.792,778.54,1104.177,777.979z"/>
				<path fill="#1ABC9C" d="M1127.04,785.758c-0.434,0.727-1.075,1.309-1.925,1.746c-0.849,0.438-1.882,0.655-3.098,0.652
					c-1.2-0.004-2.272-0.211-3.214-0.621c-0.943-0.411-1.698-1.001-2.263-1.771c-0.566-0.77-0.888-1.667-0.964-2.69l3.6,0.01
					c0.078,0.688,0.353,1.261,0.823,1.719c0.471,0.457,1.098,0.687,1.882,0.688c0.704,0.002,1.245-0.185,1.622-0.56
					c0.377-0.374,0.566-0.857,0.568-1.45c0.001-0.528-0.149-0.964-0.452-1.31c-0.303-0.345-0.687-0.621-1.15-0.831
					c-0.463-0.209-1.103-0.45-1.918-0.726c-1.055-0.354-1.918-0.705-2.589-1.051c-0.671-0.346-1.242-0.848-1.712-1.505
					c-0.471-0.657-0.704-1.514-0.701-2.569c0.004-1.456,0.531-2.604,1.582-3.439c1.05-0.838,2.439-1.254,4.167-1.249
					c1.792,0.005,3.218,0.44,4.28,1.308c1.062,0.867,1.662,2.021,1.802,3.461l-3.648-0.01c-0.094-0.608-0.349-1.108-0.764-1.502
					c-0.415-0.393-0.982-0.591-1.702-0.593c-0.624-0.002-1.129,0.161-1.514,0.487c-0.385,0.328-0.579,0.803-0.58,1.427
					c-0.001,0.496,0.146,0.909,0.441,1.237c0.295,0.329,0.67,0.598,1.125,0.807s1.075,0.443,1.858,0.701
					c1.087,0.387,1.97,0.75,2.649,1.088s1.258,0.844,1.736,1.517c0.478,0.673,0.715,1.554,0.712,2.642
					C1127.692,784.235,1127.474,785.031,1127.04,785.758z"/>
				<path fill="#1ABC9C" d="M1130.42,769.567c0.385-0.343,0.89-0.514,1.514-0.513c0.624,0.002,1.127,0.176,1.51,0.521
					c0.383,0.345,0.574,0.789,0.573,1.333c-0.001,0.528-0.195,0.964-0.58,1.306c-0.385,0.344-0.89,0.514-1.513,0.512
					c-0.624-0.001-1.128-0.174-1.511-0.52s-0.574-0.781-0.572-1.31C1129.842,770.354,1130.036,769.91,1130.42,769.567z
					 M1133.598,774.725l-0.037,13.295l-3.384-0.01l0.037-13.295L1133.598,774.725z"/>
				<path fill="#1ABC9C" d="M1144.744,775.379c0.791,0.53,1.361,1.244,1.71,2.141l0.02-7.224l3.36,0.009l-0.049,17.76l-3.36-0.009
					l0.008-2.784c-0.354,0.896-0.929,1.609-1.722,2.143c-0.793,0.535-1.75,0.8-2.87,0.797c-1.12-0.004-2.127-0.277-3.021-0.824
					c-0.895-0.547-1.592-1.337-2.094-2.37c-0.501-1.033-0.75-2.246-0.746-3.638c0.004-1.393,0.26-2.604,0.767-3.635
					c0.507-1.03,1.208-1.816,2.106-2.357c0.897-0.541,1.906-0.811,3.026-0.808C1142.998,774.582,1143.953,774.849,1144.744,775.379z
					 M1140.379,778.559c-0.642,0.687-0.964,1.629-0.968,2.83c-0.003,1.199,0.314,2.141,0.952,2.822
					c0.638,0.682,1.485,1.023,2.541,1.027c1.024,0.002,1.869-0.344,2.535-1.037c0.666-0.694,1-1.625,1.004-2.793
					c0.003-1.185-0.327-2.125-0.988-2.823c-0.662-0.698-1.505-1.048-2.529-1.052C1141.87,777.531,1141.021,777.873,1140.379,778.559
					z"/>
				<path fill="#1ABC9C" d="M1165.257,782.107l-9.744-0.027c0.045,1.186,0.363,2.058,0.954,2.619
					c0.589,0.562,1.325,0.844,2.206,0.846c0.784,0.003,1.436-0.188,1.957-0.57s0.854-0.901,1-1.557l3.576,0.01
					c-0.179,0.928-0.557,1.758-1.135,2.492c-0.578,0.735-1.32,1.309-2.225,1.723s-1.91,0.619-3.014,0.615
					c-1.296-0.004-2.447-0.283-3.454-0.838c-1.007-0.555-1.789-1.345-2.346-2.37s-0.833-2.233-0.83-3.626s0.287-2.604,0.85-3.635
					c0.562-1.029,1.349-1.815,2.358-2.356c1.009-0.542,2.162-0.81,3.458-0.807c1.312,0.004,2.459,0.278,3.441,0.825
					s1.74,1.297,2.273,2.251c0.534,0.954,0.799,2.038,0.795,3.254C1165.379,781.292,1165.338,781.676,1165.257,782.107z
					 M1161.128,778.137c-0.614-0.562-1.37-0.844-2.265-0.847c-0.912-0.003-1.681,0.275-2.307,0.833
					c-0.625,0.559-0.972,1.383-1.039,2.47l6.456,0.019C1162.024,779.523,1161.742,778.698,1161.128,778.137z"/>
				<path fill="#1ABC9C" d="M1175.871,775.465c0.791,0.53,1.361,1.244,1.71,2.141l0.02-7.223l3.36,0.009l-0.049,17.76l-3.36-0.009
					l0.008-2.785c-0.354,0.896-0.929,1.609-1.722,2.144s-1.75,0.8-2.87,0.796c-1.12-0.003-2.127-0.277-3.021-0.824
					c-0.895-0.547-1.592-1.336-2.094-2.369c-0.501-1.033-0.75-2.246-0.746-3.639s0.26-2.604,0.767-3.634s1.208-1.817,2.106-2.358
					c0.897-0.541,1.906-0.811,3.026-0.807C1174.125,774.668,1175.08,774.935,1175.871,775.465z M1171.506,778.645
					c-0.642,0.688-0.964,1.63-0.968,2.83c-0.003,1.199,0.314,2.141,0.952,2.822c0.638,0.682,1.485,1.024,2.541,1.027
					c1.024,0.002,1.869-0.343,2.535-1.037c0.666-0.693,1-1.625,1.004-2.793c0.003-1.184-0.327-2.125-0.988-2.822
					c-0.662-0.699-1.505-1.049-2.529-1.052C1172.997,777.617,1172.147,777.959,1171.506,778.645z"/>
				<path fill="#1ABC9C" d="M1199.775,771.26l-0.008,2.688l-7.128-0.02l-0.012,4.535l5.712,0.017l-0.007,2.593l-5.712-0.017
					l-0.02,7.128l-3.384-0.01l0.047-16.943L1199.775,771.26z"/>
				<path fill="#1ABC9C" d="M1211.678,775.588c1.031,0.547,1.841,1.338,2.43,2.371c0.589,1.034,0.882,2.246,0.878,3.639
					s-0.304,2.6-0.898,3.621c-0.594,1.023-1.409,1.809-2.442,2.357c-1.033,0.55-2.198,0.822-3.494,0.818
					c-1.296-0.004-2.459-0.282-3.49-0.838c-1.031-0.555-1.84-1.345-2.43-2.37s-0.882-2.234-0.878-3.626
					c0.004-1.393,0.303-2.604,0.898-3.635c0.595-1.029,1.409-1.815,2.442-2.356s2.198-0.81,3.495-0.806
					C1209.485,774.767,1210.648,775.042,1211.678,775.588z M1205.778,778.68c-0.658,0.662-0.989,1.626-0.992,2.89
					c-0.003,1.265,0.321,2.229,0.976,2.896c0.654,0.666,1.453,1,2.397,1.002c0.944,0.003,1.745-0.326,2.403-0.989
					c0.657-0.662,0.988-1.625,0.992-2.89c0.003-1.264-0.322-2.229-0.976-2.895c-0.655-0.665-1.454-1-2.397-1.002
					C1207.236,777.688,1206.436,778.019,1205.778,778.68z"/>
				<path fill="#1ABC9C" d="M1220.8,770.502l-0.049,17.76l-3.384-0.01l0.049-17.76L1220.8,770.502z"/>
				<path fill="#1ABC9C" d="M1231.934,775.621c0.791,0.529,1.361,1.244,1.71,2.141l0.02-7.225l3.36,0.01l-0.049,17.76l-3.36-0.01
					l0.008-2.783c-0.354,0.895-0.929,1.609-1.722,2.143c-0.793,0.535-1.75,0.8-2.87,0.797c-1.12-0.004-2.127-0.278-3.021-0.824
					c-0.895-0.547-1.592-1.337-2.094-2.371c-0.501-1.033-0.75-2.245-0.746-3.637c0.004-1.393,0.26-2.604,0.767-3.635
					c0.507-1.03,1.208-1.816,2.106-2.357c0.897-0.542,1.906-0.811,3.026-0.809C1230.188,774.824,1231.144,775.09,1231.934,775.621z
					 M1227.569,778.801c-0.642,0.686-0.964,1.629-0.968,2.829s0.314,2.142,0.952,2.823c0.638,0.682,1.485,1.023,2.541,1.026
					c1.024,0.003,1.869-0.343,2.535-1.036c0.666-0.695,1-1.626,1.004-2.794c0.003-1.185-0.327-2.125-0.988-2.822
					c-0.662-0.698-1.505-1.049-2.529-1.052C1229.061,777.772,1228.211,778.114,1227.569,778.801z"/>
			</g>
		</g>
	</g>
	<g id="MTEXT_59_">
		<g>
			<g>
				<path fill="#1ABC9C" d="M774.996,771.705c1.285,0.74,2.299,1.771,3.039,3.092c0.741,1.322,1.108,2.815,1.104,4.479
					c-0.005,1.664-0.381,3.159-1.129,4.485c-0.748,1.326-1.767,2.355-3.056,3.088c-1.291,0.732-2.728,1.096-4.312,1.092
					c-1.584-0.005-3.019-0.377-4.305-1.116c-1.286-0.739-2.299-1.774-3.04-3.104c-0.74-1.33-1.108-2.827-1.104-4.491
					c0.004-1.664,0.381-3.155,1.128-4.474c0.748-1.316,1.766-2.342,3.057-3.074c1.29-0.732,2.727-1.098,4.311-1.093
					S773.709,770.965,774.996,771.705z M768.063,774.373c-0.753,0.447-1.343,1.09-1.769,1.928c-0.426,0.839-0.641,1.818-0.644,2.938
					c-0.003,1.12,0.206,2.101,0.628,2.941c0.421,0.841,1.008,1.487,1.758,1.937c0.75,0.451,1.622,0.678,2.614,0.68
					c0.992,0.003,1.864-0.219,2.618-0.664c0.753-0.446,1.343-1.089,1.769-1.928c0.426-0.838,0.641-1.818,0.645-2.938
					c0.003-1.12-0.207-2.102-0.628-2.942c-0.421-0.841-1.008-1.487-1.758-1.937c-0.751-0.45-1.623-0.677-2.614-0.68
					C769.689,773.707,768.817,773.928,768.063,774.373z"/>
				<path fill="#1ABC9C" d="M792.662,775.186c0.895,0.547,1.593,1.337,2.094,2.37c0.501,1.034,0.75,2.246,0.746,3.638
					c-0.004,1.393-0.259,2.604-0.766,3.635c-0.506,1.03-1.209,1.816-2.106,2.357c-0.897,0.542-1.907,0.811-3.026,0.809
					c-1.12-0.004-2.075-0.273-2.866-0.812c-0.791-0.538-1.353-1.256-1.686-2.152l-0.025,9.119l-3.384-0.009l0.055-19.632l3.384,0.01
					l-0.008,2.76c0.338-0.895,0.904-1.605,1.698-2.131c0.793-0.527,1.75-0.787,2.871-0.785
					C790.76,774.365,791.767,774.64,792.662,775.186z M786.041,778.348c-0.666,0.694-1,1.633-1.004,2.817
					c-0.003,1.168,0.326,2.101,0.988,2.799c0.662,0.698,1.505,1.048,2.529,1.051c1.056,0.003,1.905-0.335,2.547-1.013
					s0.965-1.617,0.968-2.817s-0.314-2.146-0.953-2.835s-1.485-1.036-2.541-1.039C787.552,777.308,786.707,777.653,786.041,778.348z
					"/>
				<path fill="#1ABC9C" d="M810.283,781.883l-9.744-0.027c0.045,1.185,0.363,2.058,0.954,2.619
					c0.589,0.562,1.325,0.844,2.206,0.846c0.784,0.003,1.436-0.188,1.957-0.57s0.854-0.901,1-1.557l3.576,0.01
					c-0.179,0.928-0.557,1.758-1.135,2.492c-0.578,0.735-1.32,1.309-2.225,1.723s-1.91,0.618-3.014,0.615
					c-1.296-0.004-2.447-0.283-3.454-0.838c-1.007-0.555-1.789-1.345-2.346-2.37c-0.558-1.025-0.834-2.234-0.83-3.626
					c0.004-1.393,0.287-2.604,0.851-3.635c0.562-1.029,1.349-1.815,2.358-2.357c1.009-0.541,2.162-0.809,3.458-0.806
					c1.312,0.003,2.459,0.278,3.441,0.825s1.74,1.297,2.273,2.251c0.534,0.954,0.799,2.038,0.795,3.254
					C810.405,781.067,810.364,781.451,810.283,781.883z M806.154,777.912c-0.614-0.562-1.37-0.844-2.265-0.847
					c-0.912-0.003-1.681,0.274-2.307,0.833s-0.972,1.382-1.039,2.47l6.456,0.019C807.05,779.299,806.768,778.473,806.154,777.912z"
					/>
				<path fill="#1ABC9C" d="M824.411,775.946c0.91,1.011,1.362,2.428,1.356,4.251l-0.021,7.729l-3.36-0.01l0.021-7.344
					c0.003-1.056-0.267-1.876-0.81-2.462c-0.542-0.585-1.286-0.88-2.229-0.882c-0.96-0.003-1.729,0.307-2.306,0.93
					c-0.578,0.622-0.869,1.518-0.872,2.686l-0.02,7.056l-3.384-0.009l0.037-13.297l3.384,0.01l-0.007,2.664
					c0.354-0.895,0.937-1.594,1.746-2.096c0.809-0.502,1.742-0.75,2.798-0.748C822.28,774.429,823.502,774.936,824.411,775.946z"/>
			</g>
		</g>
	</g>
	<g id="MTEXT_58_">
		<g>
			<g>
				<path fill="#1ABC9C" d="M277.347,770.727c0.823,0.403,1.444,0.957,1.867,1.662c0.422,0.705,0.632,1.49,0.629,2.354
					c-0.003,1.089-0.301,1.979-0.895,2.674s-1.38,1.121-2.355,1.277v0.12c2.365,0.711,3.545,2.106,3.539,4.186
					c-0.004,1.456-0.495,2.636-1.474,3.536c-0.978,0.901-2.355,1.35-4.131,1.345c-1.889-0.005-3.391-0.478-4.509-1.417
					c-1.117-0.938-1.737-2.353-1.859-4.241l3.312,0.009c0.077,0.865,0.359,1.55,0.847,2.055c0.486,0.506,1.178,0.76,2.073,0.762
					c0.769,0.002,1.369-0.207,1.802-0.631c0.434-0.422,0.651-0.978,0.653-1.666c0.002-0.816-0.308-1.441-0.931-1.875
					s-1.543-0.651-2.759-0.654l-0.695-0.002l0.008-2.761l0.695,0.002c2.239,0.038,3.362-0.735,3.366-2.319
					c0.002-0.688-0.196-1.228-0.595-1.621c-0.399-0.393-0.943-0.591-1.631-0.593c-0.72-0.002-1.312,0.225-1.778,0.679
					c-0.465,0.455-0.73,1.091-0.797,1.906l-3.312-0.009c0.101-1.728,0.664-3.059,1.69-3.991c1.026-0.934,2.452-1.397,4.276-1.393
					C275.536,770.123,276.523,770.326,277.347,770.727z"/>
				<path fill="#1ABC9C" d="M282.639,779.118c0.017-5.728,2.185-8.586,6.504-8.574c2.288,0.007,3.935,0.779,4.938,2.317
					c1.004,1.539,1.502,3.637,1.495,6.293c-0.008,2.672-0.518,4.774-1.53,6.307c-1.012,1.534-2.662,2.297-4.95,2.291
					C284.775,787.74,282.623,784.863,282.639,779.118z M292.239,779.145c0.005-1.729-0.204-3.061-0.625-3.998
					c-0.422-0.937-1.248-1.407-2.48-1.41c-1.248-0.004-2.085,0.463-2.512,1.396c-0.427,0.936-0.643,2.266-0.647,3.994
					c-0.005,1.744,0.204,3.085,0.625,4.021c0.422,0.938,1.256,1.408,2.504,1.412c1.232,0.003,2.062-0.463,2.488-1.398
					C292.019,782.229,292.234,780.889,292.239,779.145z"/>
				<path fill="#1ABC9C" d="M305.375,772.018c0.838,0.762,1.255,1.807,1.251,3.135c-0.003,1.312-0.418,2.359-1.244,3.141
					c-0.826,0.782-1.943,1.171-3.352,1.167s-2.547-0.403-3.417-1.198c-0.87-0.794-1.303-1.839-1.299-3.135
					c0.004-1.328,0.431-2.371,1.28-3.129c0.85-0.757,1.987-1.135,3.411-1.131C303.414,770.871,304.537,771.256,305.375,772.018z
					 M300.523,773.324c-0.394,0.423-0.591,1.034-0.593,1.834c-0.002,0.784,0.199,1.389,0.606,1.813
					c0.406,0.426,0.906,0.639,1.498,0.641c0.576,0.001,1.049-0.209,1.418-0.632c0.369-0.424,0.555-1.027,0.557-1.811
					c0.003-0.801-0.184-1.412-0.559-1.838c-0.375-0.425-0.858-0.639-1.45-0.641S300.916,772.9,300.523,773.324z"/>
			</g>
		</g>
	</g>
	<g id="MTEXT_57_">
		<g>
			<g>
				<path fill="#1ABC9C" d="M397.409,784.283l0.008-2.807l8.142-10.898l3.624,0.01l-0.03,10.801l2.208,0.006l-0.008,2.928
					l-2.208-0.006l-0.01,3.408l-3.407-0.01l0.01-3.408L397.409,784.283z M406.028,774.54l-5.155,6.825l5.136,0.015L406.028,774.54z"
					/>
				<path fill="#1ABC9C" d="M425.399,773.465l-8.04-0.021l-0.012,4.271c0.369-0.431,0.878-0.777,1.527-1.039
					c0.649-0.262,1.365-0.393,2.149-0.391c1.168,0.004,2.139,0.258,2.914,0.765c0.774,0.506,1.349,1.179,1.723,2.021
					s0.559,1.773,0.556,2.798c-0.005,1.808-0.517,3.255-1.536,4.339c-1.019,1.086-2.473,1.625-4.36,1.62
					c-1.232-0.003-2.304-0.226-3.214-0.669c-0.911-0.441-1.622-1.061-2.131-1.854s-0.787-1.719-0.832-2.774l3.288,0.009
					c0.125,0.721,0.42,1.294,0.883,1.719c0.463,0.426,1.079,0.639,1.847,0.641c0.928,0.004,1.621-0.278,2.078-0.846
					c0.458-0.566,0.688-1.322,0.69-2.266c0.002-0.896-0.235-1.593-0.714-2.09c-0.479-0.498-1.158-0.748-2.038-0.75
					c-0.64-0.002-1.184,0.137-1.633,0.415c-0.449,0.279-0.778,0.65-0.987,1.113l-3.288-0.009l0.027-10.008l11.112,0.031
					L425.399,773.465z"/>
				<path fill="#1ABC9C" d="M436.022,772.02c0.838,0.762,1.255,1.807,1.251,3.135c-0.003,1.312-0.418,2.359-1.245,3.141
					c-0.826,0.782-1.943,1.17-3.351,1.166c-1.408-0.004-2.547-0.402-3.417-1.197c-0.87-0.794-1.303-1.839-1.299-3.135
					c0.004-1.328,0.431-2.371,1.281-3.129c0.85-0.757,1.987-1.135,3.411-1.131C434.062,770.873,435.185,771.258,436.022,772.02z
					 M431.171,773.326c-0.394,0.423-0.59,1.033-0.593,1.834c-0.002,0.783,0.2,1.389,0.607,1.813c0.406,0.425,0.906,0.639,1.498,0.64
					c0.576,0.002,1.048-0.209,1.418-0.632c0.369-0.423,0.555-1.026,0.557-1.81c0.002-0.801-0.184-1.412-0.559-1.838
					c-0.375-0.426-0.858-0.639-1.45-0.641C432.057,772.691,431.564,772.902,431.171,773.326z"/>
			</g>
		</g>
	</g>
	<g id="MTEXT_56_">
		<g>
			<g>
				<path fill="#1ABC9C" d="M527.401,772.879c-1.12-0.003-1.938,0.487-2.453,1.47c-0.515,0.982-0.743,2.521-0.685,4.618
					c0.258-0.768,0.76-1.379,1.505-1.832c0.746-0.453,1.614-0.68,2.606-0.677c1.632,0.005,2.915,0.5,3.848,1.487
					c0.933,0.986,1.397,2.383,1.392,4.191c-0.003,1.12-0.23,2.111-0.68,2.974c-0.451,0.863-1.12,1.542-2.009,2.034
					c-0.89,0.494-1.967,0.739-3.23,0.736c-2.464-0.008-4.158-0.775-5.082-2.307s-1.382-3.64-1.375-6.328
					c0.009-3.088,0.515-5.375,1.519-6.859c1.004-1.485,2.626-2.225,4.866-2.219c1.712,0.005,3.022,0.496,3.932,1.475
					c0.909,0.979,1.425,2.229,1.549,3.748l-3.167-0.008C529.686,773.718,528.841,772.883,527.401,772.879z M525.317,784.094
					c0.518,0.586,1.282,0.879,2.29,0.883c0.864,0.002,1.552-0.252,2.066-0.763s0.771-1.222,0.774-2.134
					c0.003-0.961-0.255-1.697-0.773-2.211c-0.519-0.513-1.218-0.771-2.098-0.773c-0.832-0.002-1.545,0.236-2.138,0.715
					c-0.594,0.478-0.891,1.164-0.894,2.061C524.541,782.768,524.799,783.508,525.317,784.094z"/>
				<path fill="#1ABC9C" d="M535.951,779.119c0.016-5.729,2.184-8.586,6.504-8.574c2.288,0.006,3.934,0.779,4.938,2.318
					c1.004,1.538,1.502,3.636,1.495,6.291c-0.007,2.673-0.517,4.775-1.53,6.309c-1.012,1.533-2.662,2.297-4.95,2.29
					C538.087,787.741,535.935,784.863,535.951,779.119z M545.551,779.146c0.005-1.728-0.204-3.06-0.625-3.997
					s-1.248-1.408-2.48-1.412c-1.248-0.003-2.085,0.463-2.512,1.398c-0.427,0.934-0.643,2.266-0.647,3.993
					c-0.005,1.744,0.204,3.085,0.625,4.022c0.421,0.937,1.256,1.407,2.504,1.41c1.232,0.004,2.062-0.462,2.488-1.396
					C545.33,782.229,545.546,780.89,545.551,779.146z"/>
				<path fill="#1ABC9C" d="M558.686,772.018c0.838,0.763,1.255,1.809,1.251,3.137c-0.003,1.312-0.418,2.358-1.245,3.141
					c-0.826,0.781-1.943,1.17-3.351,1.166c-1.408-0.004-2.547-0.403-3.417-1.197c-0.87-0.795-1.303-1.84-1.299-3.136
					c0.004-1.328,0.431-2.371,1.281-3.128c0.85-0.758,1.987-1.135,3.411-1.131C556.725,770.873,557.848,771.256,558.686,772.018z
					 M553.834,773.324c-0.394,0.424-0.59,1.035-0.593,1.835c-0.002,0.784,0.2,1.389,0.607,1.813
					c0.406,0.426,0.906,0.639,1.498,0.641c0.576,0.002,1.048-0.209,1.418-0.633c0.369-0.422,0.555-1.025,0.557-1.811
					c0.002-0.799-0.184-1.412-0.559-1.838c-0.375-0.424-0.858-0.638-1.45-0.64C554.72,772.691,554.228,772.902,553.834,773.324z"/>
			</g>
		</g>
	</g>
	<g id="MTEXT_55_">
		<g>
			<g>
				<path fill="#1ABC9C" d="M659.896,773.158l-6.232,14.551l-3.504-0.01l6.304-14.166l-7.848-0.021l0.008-2.904l11.28,0.031
					L659.896,773.158z"/>
				<path fill="#1ABC9C" d="M673.671,773.461l-8.04-0.023l-0.012,4.272c0.369-0.431,0.878-0.777,1.527-1.04
					c0.649-0.262,1.365-0.392,2.149-0.39c1.168,0.003,2.139,0.258,2.914,0.765c0.774,0.506,1.349,1.18,1.723,2.021
					s0.559,1.774,0.556,2.798c-0.005,1.809-0.517,3.254-1.536,4.34c-1.019,1.085-2.473,1.625-4.36,1.619
					c-1.232-0.004-2.304-0.227-3.214-0.668c-0.911-0.443-1.622-1.061-2.131-1.854s-0.787-1.718-0.832-2.774l3.288,0.01
					c0.125,0.721,0.42,1.293,0.883,1.718c0.463,0.426,1.079,0.64,1.847,0.642c0.928,0.002,1.621-0.279,2.078-0.847
					c0.458-0.566,0.688-1.321,0.69-2.267c0.002-0.896-0.235-1.592-0.714-2.09c-0.479-0.496-1.158-0.746-2.038-0.749
					c-0.64-0.002-1.184,0.137-1.633,0.415c-0.449,0.279-0.778,0.65-0.987,1.113l-3.288-0.009l0.028-10.008l11.111,0.03
					L673.671,773.461z"/>
				<path fill="#1ABC9C" d="M684.294,772.014c0.838,0.763,1.255,1.809,1.251,3.137c-0.003,1.312-0.418,2.358-1.245,3.141
					c-0.826,0.781-1.943,1.17-3.351,1.166c-1.408-0.004-2.547-0.403-3.417-1.197c-0.87-0.795-1.303-1.84-1.299-3.136
					c0.004-1.328,0.431-2.371,1.281-3.128c0.85-0.758,1.987-1.135,3.411-1.131C682.333,770.869,683.457,771.252,684.294,772.014z
					 M679.443,773.32c-0.394,0.424-0.59,1.035-0.593,1.835c-0.002,0.784,0.2,1.389,0.607,1.813c0.406,0.426,0.906,0.639,1.498,0.641
					c0.576,0.002,1.048-0.209,1.418-0.633c0.369-0.422,0.555-1.025,0.557-1.811c0.002-0.799-0.184-1.412-0.559-1.837
					c-0.375-0.425-0.858-0.639-1.45-0.641C680.329,772.688,679.836,772.898,679.443,773.32z"/>
			</g>
		</g>
	</g>
</g>
<g id="AG-DIAGRAM">
	<g id="POLYLINE_1867_">
		<g>
			<g>
				
					<line fill="none" stroke="#1ABC9C" stroke-width="2.5" stroke-linecap="round" stroke-linejoin="round" x1="1176.51" y1="363.931" x2="1176.51" y2="361.431"/>
				
					<line fill="none" stroke="#1ABC9C" stroke-width="2.5" stroke-linecap="round" stroke-linejoin="round" x1="1176.51" y1="360.632" x2="1176.51" y2="358.132"/>
			</g>
		</g>
	</g>
	<g id="POLYLINE_1866_">
		<g>
			
				<line fill="none" stroke="#1ABC9C" stroke-width="2.5" stroke-linecap="round" stroke-linejoin="round" stroke-dasharray="3.3482" x1="1049.278" y1="414.587" x2="1049.278" y2="411.238"/>
		</g>
	</g>
	<g id="POLYLINE_1865_">
		<g>
			<g>
				
					<line fill="none" stroke="#1ABC9C" stroke-width="2.5" stroke-linecap="round" stroke-linejoin="round" x1="413.117" y1="465.335" x2="413.117" y2="462.835"/>
				
					<line fill="none" stroke="#1ABC9C" stroke-width="2.5" stroke-linecap="round" stroke-linejoin="round" stroke-dasharray="4.778,4.778" x1="413.117" y1="458.057" x2="413.117" y2="393.554"/>
				
					<line fill="none" stroke="#1ABC9C" stroke-width="2.5" stroke-linecap="round" stroke-linejoin="round" x1="413.117" y1="391.165" x2="413.117" y2="388.665"/>
			</g>
		</g>
	</g>
	<g id="POLYLINE_1864_">
		<g>
			
				<line fill="none" stroke="#1ABC9C" stroke-width="2.5" stroke-linecap="round" stroke-linejoin="round" stroke-dasharray="2.3675" x1="413.117" y1="582.134" x2="413.117" y2="579.766"/>
		</g>
	</g>
</g>
<g id="AG-BUILDINGS">
</g>
<g id="AG-WALLS">
	<g id="POLYLINE_1863_">
		
			<rect x="1303.742" y="582.134" fill="none" stroke="#1ABC9C" stroke-width="2.5" stroke-linecap="round" stroke-linejoin="round" stroke-miterlimit="10" width="20.089" height="160.714"/>
	</g>
	<g id="POLYLINE_1862_">
		
			<rect x="1303.742" y="582.134" fill="none" stroke="#1ABC9C" stroke-width="2.5" stroke-linecap="round" stroke-linejoin="round" stroke-miterlimit="10" width="20.089" height="8.929"/>
	</g>
	<g id="POLYLINE_1861_">
		
			<rect x="1303.742" y="262.938" fill="none" stroke="#1ABC9C" stroke-width="2.5" stroke-linecap="round" stroke-linejoin="round" stroke-miterlimit="10" width="20.089" height="8.929"/>
	</g>
	<g id="POLYLINE_1860_">
		
			<rect x="1303.742" y="111.152" fill="none" stroke="#1ABC9C" stroke-width="2.5" stroke-linecap="round" stroke-linejoin="round" stroke-miterlimit="10" width="20.089" height="160.714"/>
	</g>
	<g id="POLYLINE_1859_">
		
			<rect x="1039.233" y="111.152" fill="none" stroke="#1ABC9C" stroke-width="2.5" stroke-linecap="round" stroke-linejoin="round" stroke-miterlimit="10" width="20.089" height="160.714"/>
	</g>
	<g id="POLYLINE_1858_">
		
			<rect x="1039.233" y="262.938" fill="none" stroke="#1ABC9C" stroke-width="2.5" stroke-linecap="round" stroke-linejoin="round" stroke-miterlimit="10" width="20.089" height="8.929"/>
	</g>
	<g id="POLYLINE_1857_">
		
			<rect x="1039.233" y="582.134" fill="none" stroke="#1ABC9C" stroke-width="2.5" stroke-linecap="round" stroke-linejoin="round" stroke-miterlimit="10" width="20.089" height="8.929"/>
	</g>
	<g id="POLYLINE_1856_">
		
			<rect x="1039.233" y="582.134" fill="none" stroke="#1ABC9C" stroke-width="2.5" stroke-linecap="round" stroke-linejoin="round" stroke-miterlimit="10" width="20.089" height="160.714"/>
	</g>
	<g id="POLYLINE_1855_">
		
			<rect x="1166.465" y="582.134" fill="none" stroke="#1ABC9C" stroke-width="2.5" stroke-linecap="round" stroke-linejoin="round" stroke-miterlimit="10" width="20.089" height="160.714"/>
	</g>
	<g id="POLYLINE_1854_">
		
			<rect x="1166.465" y="582.134" fill="none" stroke="#1ABC9C" stroke-width="2.5" stroke-linecap="round" stroke-linejoin="round" stroke-miterlimit="10" width="20.089" height="8.929"/>
	</g>
	<g id="POLYLINE_1853_">
		
			<rect x="1166.465" y="262.938" fill="none" stroke="#1ABC9C" stroke-width="2.5" stroke-linecap="round" stroke-linejoin="round" stroke-miterlimit="10" width="20.089" height="8.929"/>
	</g>
	<g id="POLYLINE_1852_">
		
			<rect x="1166.465" y="111.152" fill="none" stroke="#1ABC9C" stroke-width="2.5" stroke-linecap="round" stroke-linejoin="round" stroke-miterlimit="10" width="20.089" height="160.714"/>
	</g>
	<g id="POLYLINE_1851_">
		
			<rect x="148.608" y="582.134" fill="none" stroke="#1ABC9C" stroke-width="2.5" stroke-linecap="round" stroke-linejoin="round" stroke-miterlimit="10" width="20.089" height="160.714"/>
	</g>
	<g id="POLYLINE_1850_">
		
			<rect x="148.608" y="582.134" fill="none" stroke="#1ABC9C" stroke-width="2.5" stroke-linecap="round" stroke-linejoin="round" stroke-miterlimit="10" width="20.089" height="8.929"/>
	</g>
	<g id="POLYLINE_1849_">
		
			<rect x="148.608" y="262.938" fill="none" stroke="#1ABC9C" stroke-width="2.5" stroke-linecap="round" stroke-linejoin="round" stroke-miterlimit="10" width="20.089" height="8.929"/>
	</g>
	<g id="POLYLINE_1848_">
		
			<rect x="148.608" y="111.152" fill="none" stroke="#1ABC9C" stroke-width="2.5" stroke-linecap="round" stroke-linejoin="round" stroke-miterlimit="10" width="20.089" height="160.714"/>
	</g>
	<g id="POLYLINE_1847_">
		
			<rect x="275.84" y="582.134" fill="none" stroke="#1ABC9C" stroke-width="2.5" stroke-linecap="round" stroke-linejoin="round" stroke-miterlimit="10" width="20.089" height="160.714"/>
	</g>
	<g id="POLYLINE_1846_">
		
			<rect x="275.84" y="582.134" fill="none" stroke="#1ABC9C" stroke-width="2.5" stroke-linecap="round" stroke-linejoin="round" stroke-miterlimit="10" width="20.089" height="8.929"/>
	</g>
	<g id="POLYLINE_1845_">
		
			<rect x="275.84" y="262.938" fill="none" stroke="#1ABC9C" stroke-width="2.5" stroke-linecap="round" stroke-linejoin="round" stroke-miterlimit="10" width="20.089" height="8.929"/>
	</g>
	<g id="POLYLINE_1844_">
		
			<rect x="275.84" y="111.152" fill="none" stroke="#1ABC9C" stroke-width="2.5" stroke-linecap="round" stroke-linejoin="round" stroke-miterlimit="10" width="20.089" height="160.714"/>
	</g>
	<g id="POLYLINE_1843_">
		
			<rect x="403.072" y="111.152" fill="none" stroke="#1ABC9C" stroke-width="2.5" stroke-linecap="round" stroke-linejoin="round" stroke-miterlimit="10" width="20.089" height="160.714"/>
	</g>
	<g id="POLYLINE_1842_">
		
			<rect x="403.072" y="262.938" fill="none" stroke="#1ABC9C" stroke-width="2.5" stroke-linecap="round" stroke-linejoin="round" stroke-miterlimit="10" width="20.089" height="8.929"/>
	</g>
	<g id="POLYLINE_1841_">
		
			<rect x="403.072" y="582.134" fill="none" stroke="#1ABC9C" stroke-width="2.5" stroke-linecap="round" stroke-linejoin="round" stroke-miterlimit="10" width="20.089" height="8.929"/>
	</g>
	<g id="POLYLINE_1840_">
		
			<rect x="403.072" y="582.134" fill="none" stroke="#1ABC9C" stroke-width="2.5" stroke-linecap="round" stroke-linejoin="round" stroke-miterlimit="10" width="20.089" height="160.714"/>
	</g>
	<g id="POLYLINE_1839_">
		
			<rect x="530.305" y="582.134" fill="none" stroke="#1ABC9C" stroke-width="2.5" stroke-linecap="round" stroke-linejoin="round" stroke-miterlimit="10" width="20.089" height="160.714"/>
	</g>
	<g id="POLYLINE_1838_">
		
			<rect x="530.305" y="582.134" fill="none" stroke="#1ABC9C" stroke-width="2.5" stroke-linecap="round" stroke-linejoin="round" stroke-miterlimit="10" width="20.089" height="8.929"/>
	</g>
	<g id="POLYLINE_1837_">
		
			<rect x="530.305" y="262.938" fill="none" stroke="#1ABC9C" stroke-width="2.5" stroke-linecap="round" stroke-linejoin="round" stroke-miterlimit="10" width="20.089" height="8.929"/>
	</g>
	<g id="POLYLINE_1836_">
		
			<rect x="530.305" y="111.152" fill="none" stroke="#1ABC9C" stroke-width="2.5" stroke-linecap="round" stroke-linejoin="round" stroke-miterlimit="10" width="20.089" height="160.714"/>
	</g>
	<g id="POLYLINE_1835_">
		
			<rect x="784.769" y="582.134" fill="none" stroke="#1ABC9C" stroke-width="2.5" stroke-linecap="round" stroke-linejoin="round" stroke-miterlimit="10" width="20.089" height="160.714"/>
	</g>
	<g id="POLYLINE_1834_">
		
			<rect x="784.769" y="582.134" fill="none" stroke="#1ABC9C" stroke-width="2.5" stroke-linecap="round" stroke-linejoin="round" stroke-miterlimit="10" width="20.089" height="8.929"/>
	</g>
	<g id="POLYLINE_1833_">
		
			<rect x="784.769" y="262.938" fill="none" stroke="#1ABC9C" stroke-width="2.5" stroke-linecap="round" stroke-linejoin="round" stroke-miterlimit="10" width="20.089" height="8.929"/>
	</g>
	<g id="POLYLINE_1832_">
		
			<rect x="784.769" y="111.152" fill="none" stroke="#1ABC9C" stroke-width="2.5" stroke-linecap="round" stroke-linejoin="round" stroke-miterlimit="10" width="20.089" height="160.714"/>
	</g>
	<g id="POLYLINE_1831_">
		
			<rect x="657.537" y="582.134" fill="none" stroke="#1ABC9C" stroke-width="2.5" stroke-linecap="round" stroke-linejoin="round" stroke-miterlimit="10" width="20.089" height="160.714"/>
	</g>
	<g id="POLYLINE_1830_">
		
			<rect x="657.537" y="582.134" fill="none" stroke="#1ABC9C" stroke-width="2.5" stroke-linecap="round" stroke-linejoin="round" stroke-miterlimit="10" width="20.089" height="8.929"/>
	</g>
	<g id="POLYLINE_1829_">
		
			<rect x="657.537" y="262.938" fill="none" stroke="#1ABC9C" stroke-width="2.5" stroke-linecap="round" stroke-linejoin="round" stroke-miterlimit="10" width="20.089" height="8.929"/>
	</g>
	<g id="POLYLINE_1828_">
		
			<rect x="657.537" y="111.152" fill="none" stroke="#1ABC9C" stroke-width="2.5" stroke-linecap="round" stroke-linejoin="round" stroke-miterlimit="10" width="20.089" height="160.714"/>
	</g>
</g>
<g id="AG-DOORS">
	<g id="POLYLINE_1791_">
		
			<rect x="1313.787" y="285.259" fill="none" stroke="#1ABC9C" stroke-width="2.5" stroke-linecap="round" stroke-linejoin="round" stroke-miterlimit="10" width="77.567" height="6.696"/>
	</g>
	<g id="POLYLINE_1790_">
		
			<rect x="1313.787" y="291.955" fill="none" stroke="#1ABC9C" stroke-width="2.5" stroke-linecap="round" stroke-linejoin="round" stroke-miterlimit="10" width="77.567" height="6.696"/>
	</g>
	<g id="POLYLINE_1789_">
		
			<rect x="1313.787" y="271.866" fill="none" stroke="#1ABC9C" stroke-width="2.5" stroke-linecap="round" stroke-linejoin="round" stroke-miterlimit="10" width="77.567" height="6.696"/>
	</g>
	<g id="POLYLINE_1788_">
		
			<rect x="1313.787" y="278.562" fill="none" stroke="#1ABC9C" stroke-width="2.5" stroke-linecap="round" stroke-linejoin="round" stroke-miterlimit="10" width="77.567" height="6.696"/>
	</g>
	<g id="POLYLINE_1787_">
		
			<rect x="1029.886" y="515.349" transform="matrix(0.5 -0.866 0.866 0.5 85.1298 1184.8436)" fill="none" stroke="#1ABC9C" stroke-width="2.5" stroke-linecap="round" stroke-linejoin="round" stroke-miterlimit="10" width="77.567" height="6.696"/>
	</g>
	<g id="POLYLINE_1786_">
		
			<rect x="1065.321" y="409.391" transform="matrix(0.866 -0.5 0.5 0.866 -80.9124 594.3787)" fill="none" stroke="#1ABC9C" stroke-width="2.5" stroke-linecap="round" stroke-linejoin="round" stroke-miterlimit="10" width="6.696" height="77.567"/>
	</g>
	<g id="POLYLINE_1785_">
		
			<rect x="1065.321" y="268.344" transform="matrix(0.866 -0.5 0.5 0.866 -10.3893 575.4821)" fill="none" stroke="#1ABC9C" stroke-width="2.5" stroke-linecap="round" stroke-linejoin="round" stroke-miterlimit="10" width="6.696" height="77.567"/>
	</g>
	<g id="POLYLINE_1784_">
		
			<rect x="1029.886" y="374.303" transform="matrix(0.5 -0.866 0.866 0.5 207.2796 1114.3204)" fill="none" stroke="#1ABC9C" stroke-width="2.5" stroke-linecap="round" stroke-linejoin="round" stroke-miterlimit="10" width="77.567" height="6.696"/>
	</g>
	<g id="POLYLINE_1783_">
		
			<rect x="1171.314" y="424.558" transform="matrix(0.866 -0.5 0.5 0.866 -51.8306 662.3772)" fill="none" stroke="#1ABC9C" stroke-width="2.5" stroke-linecap="round" stroke-linejoin="round" stroke-miterlimit="10" width="77.567" height="6.696"/>
	</g>
	<g id="POLYLINE_1782_">
		
			<rect x="1206.749" y="344.539" transform="matrix(0.5 -0.866 0.866 0.5 273.0813 1239.6366)" fill="none" stroke="#1ABC9C" stroke-width="2.5" stroke-linecap="round" stroke-linejoin="round" stroke-miterlimit="10" width="6.696" height="77.567"/>
	</g>
	<g id="POLYLINE_1781_">
		
			<rect x="1206.749" y="255.374" transform="matrix(0.5 -0.866 0.866 0.5 350.3009 1195.0538)" fill="none" stroke="#1ABC9C" stroke-width="2.5" stroke-linecap="round" stroke-linejoin="round" stroke-miterlimit="10" width="6.696" height="77.567"/>
	</g>
	<g id="POLYLINE_1780_">
		
			<rect x="1171.314" y="335.392" transform="matrix(0.866 -0.5 0.5 0.866 -7.2478 650.4313)" fill="none" stroke="#1ABC9C" stroke-width="2.5" stroke-linecap="round" stroke-linejoin="round" stroke-miterlimit="10" width="77.567" height="6.696"/>
	</g>
	<g id="POLYLINE_1779_">
		
			<rect x="155.305" y="271.866" fill="none" stroke="#1ABC9C" stroke-width="2.5" stroke-linecap="round" stroke-linejoin="round" stroke-miterlimit="10" width="6.696" height="77.567"/>
	</g>
	<g id="POLYLINE_1778_">
		
			<rect x="155.305" y="349.433" fill="none" stroke="#1ABC9C" stroke-width="2.5" stroke-linecap="round" stroke-linejoin="round" stroke-miterlimit="10" width="6.696" height="77.567"/>
	</g>
	<g id="POLYLINE_1777_">
		
			<rect x="155.305" y="504.567" fill="none" stroke="#1ABC9C" stroke-width="2.5" stroke-linecap="round" stroke-linejoin="round" stroke-miterlimit="10" width="6.696" height="77.567"/>
	</g>
	<g id="POLYLINE_1776_">
		
			<rect x="155.305" y="427" fill="none" stroke="#1ABC9C" stroke-width="2.5" stroke-linecap="round" stroke-linejoin="round" stroke-miterlimit="10" width="6.696" height="77.567"/>
	</g>
	<g id="POLYLINE_1775_">
		
			<rect x="266.493" y="374.303" transform="matrix(0.5 -0.866 0.866 0.5 -174.4169 453.2028)" fill="none" stroke="#1ABC9C" stroke-width="2.5" stroke-linecap="round" stroke-linejoin="round" stroke-miterlimit="10" width="77.567" height="6.696"/>
	</g>
	<g id="POLYLINE_1774_">
		
			<rect x="301.928" y="268.344" transform="matrix(0.866 -0.5 0.5 0.866 -112.6645 193.7856)" fill="none" stroke="#1ABC9C" stroke-width="2.5" stroke-linecap="round" stroke-linejoin="round" stroke-miterlimit="10" width="6.696" height="77.567"/>
	</g>
	<g id="POLYLINE_1773_">
		
			<rect x="266.493" y="543.524" transform="matrix(0.5 -0.866 0.866 0.5 -320.967 537.8135)" fill="none" stroke="#1ABC9C" stroke-width="2.5" stroke-linecap="round" stroke-linejoin="round" stroke-miterlimit="10" width="77.567" height="6.696"/>
	</g>
	<g id="POLYLINE_1772_">
		
			<rect x="301.928" y="437.566" transform="matrix(0.866 -0.5 0.5 0.866 -197.2753 216.457)" fill="none" stroke="#1ABC9C" stroke-width="2.5" stroke-linecap="round" stroke-linejoin="round" stroke-miterlimit="10" width="6.696" height="77.567"/>
	</g>
	<g id="POLYLINE_1771_">
		
			<rect x="437.193" y="453.976" transform="matrix(0.7071 -0.7071 0.7071 0.7071 -219.4018 455.8354)" fill="none" stroke="#1ABC9C" stroke-width="2.5" stroke-linecap="round" stroke-linejoin="round" stroke-miterlimit="10" width="6.696" height="77.567"/>
	</g>
	<g id="POLYLINE_1770_">
		
			<rect x="401.758" y="548.994" transform="matrix(0.7071 -0.7071 0.7071 0.7071 -261.5335 473.287)" fill="none" stroke="#1ABC9C" stroke-width="2.5" stroke-linecap="round" stroke-linejoin="round" stroke-miterlimit="10" width="77.567" height="6.696"/>
	</g>
	<g id="POLYLINE_1769_">
		
			<rect x="401.758" y="357.893" transform="matrix(0.7071 -0.7071 0.7071 0.7071 -126.4044 417.3146)" fill="none" stroke="#1ABC9C" stroke-width="2.5" stroke-linecap="round" stroke-linejoin="round" stroke-miterlimit="10" width="77.567" height="6.696"/>
	</g>
	<g id="POLYLINE_1768_">
		
			<rect x="437.193" y="262.874" transform="matrix(0.7071 -0.7071 0.7071 0.7071 -84.2727 399.8631)" fill="none" stroke="#1ABC9C" stroke-width="2.5" stroke-linecap="round" stroke-linejoin="round" stroke-miterlimit="10" width="6.696" height="77.567"/>
	</g>
	<g id="POLYLINE_1767_">
		
			<rect x="570.589" y="476.476" transform="matrix(0.5 -0.866 0.866 0.5 -159.2597 754.6736)" fill="none" stroke="#1ABC9C" stroke-width="2.5" stroke-linecap="round" stroke-linejoin="round" stroke-miterlimit="10" width="6.696" height="77.567"/>
	</g>
	<g id="POLYLINE_1766_">
		
			<rect x="535.153" y="556.494" transform="matrix(0.866 -0.5 0.5 0.866 -203.0283 361.9731)" fill="none" stroke="#1ABC9C" stroke-width="2.5" stroke-linecap="round" stroke-linejoin="round" stroke-miterlimit="10" width="77.567" height="6.696"/>
	</g>
	<g id="POLYLINE_1765_">
		
			<rect x="570.589" y="255.374" transform="matrix(0.5 -0.866 0.866 0.5 32.2205 644.1225)" fill="none" stroke="#1ABC9C" stroke-width="2.5" stroke-linecap="round" stroke-linejoin="round" stroke-miterlimit="10" width="6.696" height="77.567"/>
	</g>
	<g id="POLYLINE_1764_">
		
			<rect x="535.153" y="335.392" transform="matrix(0.866 -0.5 0.5 0.866 -92.4772 332.351)" fill="none" stroke="#1ABC9C" stroke-width="2.5" stroke-linecap="round" stroke-linejoin="round" stroke-miterlimit="10" width="77.567" height="6.696"/>
	</g>
	<g id="POLYLINE_1763_">
		
			<rect x="794.814" y="575.438" fill="none" stroke="#1ABC9C" stroke-width="2.5" stroke-linecap="round" stroke-linejoin="round" stroke-miterlimit="10" width="77.567" height="6.696"/>
	</g>
	<g id="POLYLINE_1762_">
		
			<rect x="794.814" y="568.741" fill="none" stroke="#1ABC9C" stroke-width="2.5" stroke-linecap="round" stroke-linejoin="round" stroke-miterlimit="10" width="77.567" height="6.696"/>
	</g>
	<g id="POLYLINE_1761_">
		
			<rect x="794.814" y="271.866" fill="none" stroke="#1ABC9C" stroke-width="2.5" stroke-linecap="round" stroke-linejoin="round" stroke-miterlimit="10" width="77.567" height="6.696"/>
	</g>
	<g id="POLYLINE_1760_">
		
			<rect x="794.814" y="278.562" fill="none" stroke="#1ABC9C" stroke-width="2.5" stroke-linecap="round" stroke-linejoin="round" stroke-miterlimit="10" width="77.567" height="6.696"/>
	</g>
	<g id="POLYLINE_1759_">
		
			<rect x="666.26" y="565.514" transform="matrix(0.9659 -0.2588 0.2588 0.9659 -123.2085 201.8622)" fill="none" stroke="#1ABC9C" stroke-width="2.5" stroke-linecap="round" stroke-linejoin="round" stroke-miterlimit="10" width="77.567" height="6.696"/>
	</g>
	<g id="POLYLINE_1758_">
		
			<rect x="701.695" y="503.534" transform="matrix(0.2588 -0.9659 0.9659 0.2588 -1.2741 1082.9752)" fill="none" stroke="#1ABC9C" stroke-width="2.5" stroke-linecap="round" stroke-linejoin="round" stroke-miterlimit="10" width="6.696" height="77.567"/>
	</g>
	<g id="POLYLINE_1757_">
		
			<rect x="701.695" y="246.355" transform="matrix(0.2588 -0.9659 0.9659 0.2588 247.1424 892.3585)" fill="none" stroke="#1ABC9C" stroke-width="2.5" stroke-linecap="round" stroke-linejoin="round" stroke-miterlimit="10" width="6.696" height="77.567"/>
	</g>
	<g id="POLYLINE_1756_">
		
			<rect x="666.26" y="308.334" transform="matrix(0.9659 -0.2588 0.2588 0.9659 -56.6455 193.099)" fill="none" stroke="#1ABC9C" stroke-width="2.5" stroke-linecap="round" stroke-linejoin="round" stroke-miterlimit="10" width="77.567" height="6.696"/>
	</g>
</g>
<g id="AG-DASH">
	<g id="POLYLINE_1755_">
		<g>
			<g>
				
					<line fill="none" stroke="#1ABC9C" stroke-width="2" stroke-linecap="round" stroke-linejoin="round" x1="1323.831" y1="582.134" x2="1323.831" y2="578.634"/>
				
					<line fill="none" stroke="#1ABC9C" stroke-width="2" stroke-linecap="round" stroke-linejoin="round" stroke-dasharray="7.0893,7.0893" x1="1323.831" y1="571.545" x2="1323.831" y2="305.696"/>
				
					<line fill="none" stroke="#1ABC9C" stroke-width="2" stroke-linecap="round" stroke-linejoin="round" x1="1323.831" y1="302.152" x2="1323.831" y2="298.652"/>
			</g>
		</g>
	</g>
	<g id="POLYLINE_1754_">
		<g>
			<g>
				
					<line fill="none" stroke="#1ABC9C" stroke-width="2" stroke-linecap="round" stroke-linejoin="round" x1="1303.742" y1="582.134" x2="1303.742" y2="578.634"/>
				
					<line fill="none" stroke="#1ABC9C" stroke-width="2" stroke-linecap="round" stroke-linejoin="round" stroke-dasharray="7.0527,7.0527" x1="1303.742" y1="571.581" x2="1303.742" y2="278.892"/>
				
					<line fill="none" stroke="#1ABC9C" stroke-width="2" stroke-linecap="round" stroke-linejoin="round" x1="1303.742" y1="275.366" x2="1303.742" y2="271.866"/>
			</g>
		</g>
	</g>
	<g id="POLYLINE_1753_">
		<g>
			
				<line fill="none" stroke="#1ABC9C" stroke-width="2" stroke-linecap="round" stroke-linejoin="round" stroke-dasharray="4.8327" x1="1186.555" y1="276.699" x2="1186.555" y2="271.866"/>
		</g>
	</g>
	<g id="POLYLINE_1752_">
		<g>
			<g>
				
					<line fill="none" stroke="#1ABC9C" stroke-width="2" stroke-linecap="round" stroke-linejoin="round" x1="1186.555" y1="348.466" x2="1186.555" y2="344.966"/>
				
					<line fill="none" stroke="#1ABC9C" stroke-width="2" stroke-linecap="round" stroke-linejoin="round" stroke-dasharray="6.3373,6.3373" x1="1186.555" y1="338.629" x2="1186.555" y2="291.1"/>
				
					<line fill="none" stroke="#1ABC9C" stroke-width="2" stroke-linecap="round" stroke-linejoin="round" x1="1186.555" y1="287.931" x2="1186.555" y2="284.431"/>
			</g>
		</g>
	</g>
	<g id="POLYLINE_1751_">
		<g>
			<g>
				
					<line fill="none" stroke="#1ABC9C" stroke-width="2" stroke-linecap="round" stroke-linejoin="round" x1="1186.555" y1="365.864" x2="1186.555" y2="362.364"/>
				
					<line fill="none" stroke="#1ABC9C" stroke-width="2" stroke-linecap="round" stroke-linejoin="round" x1="1186.555" y1="359.699" x2="1186.555" y2="356.199"/>
			</g>
		</g>
	</g>
	<g id="POLYLINE_1750_">
		<g>
			<g>
				
					<line fill="none" stroke="#1ABC9C" stroke-width="2" stroke-linecap="round" stroke-linejoin="round" x1="1186.555" y1="437.632" x2="1186.555" y2="434.132"/>
				
					<line fill="none" stroke="#1ABC9C" stroke-width="2" stroke-linecap="round" stroke-linejoin="round" stroke-dasharray="6.3373,6.3373" x1="1186.555" y1="427.795" x2="1186.555" y2="380.265"/>
				
					<line fill="none" stroke="#1ABC9C" stroke-width="2" stroke-linecap="round" stroke-linejoin="round" x1="1186.555" y1="377.097" x2="1186.555" y2="373.597"/>
			</g>
		</g>
	</g>
	<g id="POLYLINE_1749_">
		<g>
			<g>
				
					<line fill="none" stroke="#1ABC9C" stroke-width="2" stroke-linecap="round" stroke-linejoin="round" x1="1186.555" y1="582.134" x2="1186.555" y2="578.634"/>
				
					<line fill="none" stroke="#1ABC9C" stroke-width="2" stroke-linecap="round" stroke-linejoin="round" stroke-dasharray="6.83,6.83" x1="1186.555" y1="571.804" x2="1186.555" y2="452.279"/>
				
					<line fill="none" stroke="#1ABC9C" stroke-width="2" stroke-linecap="round" stroke-linejoin="round" x1="1186.555" y1="448.864" x2="1186.555" y2="445.364"/>
			</g>
		</g>
	</g>
	<g id="POLYLINE_1748_">
		<g>
			<g>
				
					<line fill="none" stroke="#1ABC9C" stroke-width="2" stroke-linecap="round" stroke-linejoin="round" x1="1059.323" y1="528.19" x2="1059.323" y2="524.69"/>
				
					<line fill="none" stroke="#1ABC9C" stroke-width="2" stroke-linecap="round" stroke-linejoin="round" stroke-dasharray="7.5009,7.5009" x1="1059.323" y1="517.19" x2="1059.323" y2="445.931"/>
				
					<line fill="none" stroke="#1ABC9C" stroke-width="2" stroke-linecap="round" stroke-linejoin="round" x1="1059.323" y1="442.181" x2="1059.323" y2="438.681"/>
			</g>
		</g>
	</g>
	<g id="POLYLINE_1747_">
		<g>
			<g>
				
					<line fill="none" stroke="#1ABC9C" stroke-width="2" stroke-linecap="round" stroke-linejoin="round" x1="1059.323" y1="582.134" x2="1059.323" y2="578.634"/>
				
					<line fill="none" stroke="#1ABC9C" stroke-width="2" stroke-linecap="round" stroke-linejoin="round" stroke-dasharray="6.7101,6.7101" x1="1059.323" y1="571.924" x2="1059.323" y2="548.438"/>
				
					<line fill="none" stroke="#1ABC9C" stroke-width="2" stroke-linecap="round" stroke-linejoin="round" x1="1059.323" y1="545.083" x2="1059.323" y2="541.583"/>
			</g>
		</g>
	</g>
	<g id="POLYLINE_1746_">
		<g>
			<g>
				
					<line fill="none" stroke="#1ABC9C" stroke-width="2" stroke-linecap="round" stroke-linejoin="round" x1="1059.323" y1="425.288" x2="1059.323" y2="421.788"/>
				
					<line fill="none" stroke="#1ABC9C" stroke-width="2" stroke-linecap="round" stroke-linejoin="round" stroke-dasharray="5.917,5.917" x1="1059.323" y1="415.871" x2="1059.323" y2="406.995"/>
				
					<line fill="none" stroke="#1ABC9C" stroke-width="2" stroke-linecap="round" stroke-linejoin="round" x1="1059.323" y1="404.037" x2="1059.323" y2="400.537"/>
			</g>
		</g>
	</g>
	<g id="POLYLINE_1745_">
		<g>
			<g>
				
					<line fill="none" stroke="#1ABC9C" stroke-width="2" stroke-linecap="round" stroke-linejoin="round" x1="1039.233" y1="582.134" x2="1039.233" y2="578.634"/>
				
					<line fill="none" stroke="#1ABC9C" stroke-width="2" stroke-linecap="round" stroke-linejoin="round" stroke-dasharray="7.0527,7.0527" x1="1039.233" y1="571.581" x2="1039.233" y2="278.892"/>
				
					<line fill="none" stroke="#1ABC9C" stroke-width="2" stroke-linecap="round" stroke-linejoin="round" x1="1039.233" y1="275.366" x2="1039.233" y2="271.866"/>
			</g>
		</g>
	</g>
	<g id="POLYLINE_1744_">
		<g>
			<g>
				
					<line fill="none" stroke="#1ABC9C" stroke-width="2" stroke-linecap="round" stroke-linejoin="round" x1="1059.323" y1="284.242" x2="1059.323" y2="280.742"/>
				
					<line fill="none" stroke="#1ABC9C" stroke-width="2" stroke-linecap="round" stroke-linejoin="round" x1="1059.323" y1="275.366" x2="1059.323" y2="271.866"/>
			</g>
		</g>
	</g>
	<g id="POLYLINE_1743_">
		<g>
			<g>
				
					<line fill="none" stroke="#1ABC9C" stroke-width="2" stroke-linecap="round" stroke-linejoin="round" x1="1059.323" y1="387.144" x2="1059.323" y2="383.644"/>
				
					<line fill="none" stroke="#1ABC9C" stroke-width="2" stroke-linecap="round" stroke-linejoin="round" stroke-dasharray="7.5009,7.5009" x1="1059.323" y1="376.143" x2="1059.323" y2="304.885"/>
				
					<line fill="none" stroke="#1ABC9C" stroke-width="2" stroke-linecap="round" stroke-linejoin="round" x1="1059.323" y1="301.134" x2="1059.323" y2="297.634"/>
			</g>
		</g>
	</g>
	<g id="POLYLINE_1113_">
		<g>
			<g>
				
					<line fill="none" stroke="#1ABC9C" stroke-width="2" stroke-linecap="round" stroke-linejoin="round" x1="1166.465" y1="582.134" x2="1166.465" y2="578.634"/>
				
					<line fill="none" stroke="#1ABC9C" stroke-width="2" stroke-linecap="round" stroke-linejoin="round" stroke-dasharray="7.0527,7.0527" x1="1166.465" y1="571.581" x2="1166.465" y2="278.892"/>
				
					<line fill="none" stroke="#1ABC9C" stroke-width="2" stroke-linecap="round" stroke-linejoin="round" x1="1166.465" y1="275.366" x2="1166.465" y2="271.866"/>
			</g>
		</g>
	</g>
	<g id="POLYLINE_1108_">
		<g>
			<g>
				
					<line fill="none" stroke="#1ABC9C" stroke-width="2" stroke-linecap="round" stroke-linejoin="round" x1="295.93" y1="556.366" x2="295.93" y2="552.866"/>
				
					<line fill="none" stroke="#1ABC9C" stroke-width="2" stroke-linecap="round" stroke-linejoin="round" stroke-dasharray="7.5009,7.5009" x1="295.93" y1="545.365" x2="295.93" y2="474.106"/>
				
					<line fill="none" stroke="#1ABC9C" stroke-width="2" stroke-linecap="round" stroke-linejoin="round" x1="295.93" y1="470.356" x2="295.93" y2="466.856"/>
			</g>
		</g>
	</g>
	<g id="POLYLINE_1102_">
		<g>
			<g>
				
					<line fill="none" stroke="#1ABC9C" stroke-width="2" stroke-linecap="round" stroke-linejoin="round" x1="295.93" y1="582.134" x2="295.93" y2="578.634"/>
				
					<line fill="none" stroke="#1ABC9C" stroke-width="2" stroke-linecap="round" stroke-linejoin="round" x1="295.93" y1="573.258" x2="295.93" y2="569.758"/>
			</g>
		</g>
	</g>
	<g id="POLYLINE_1101_">
		<g>
			<g>
				
					<line fill="none" stroke="#1ABC9C" stroke-width="2" stroke-linecap="round" stroke-linejoin="round" x1="295.93" y1="453.463" x2="295.93" y2="449.963"/>
				
					<line fill="none" stroke="#1ABC9C" stroke-width="2" stroke-linecap="round" stroke-linejoin="round" stroke-dasharray="6.5609,6.5609" x1="295.93" y1="443.402" x2="295.93" y2="407.317"/>
				
					<line fill="none" stroke="#1ABC9C" stroke-width="2" stroke-linecap="round" stroke-linejoin="round" x1="295.93" y1="404.037" x2="295.93" y2="400.537"/>
			</g>
		</g>
	</g>
	<g id="POLYLINE_709_">
		<g>
			<g>
				
					<line fill="none" stroke="#1ABC9C" stroke-width="2" stroke-linecap="round" stroke-linejoin="round" x1="295.93" y1="387.144" x2="295.93" y2="383.644"/>
				
					<line fill="none" stroke="#1ABC9C" stroke-width="2" stroke-linecap="round" stroke-linejoin="round" stroke-dasharray="7.5009,7.5009" x1="295.93" y1="376.143" x2="295.93" y2="304.885"/>
				
					<line fill="none" stroke="#1ABC9C" stroke-width="2" stroke-linecap="round" stroke-linejoin="round" x1="295.93" y1="301.134" x2="295.93" y2="297.634"/>
			</g>
		</g>
	</g>
	<g id="POLYLINE_708_">
		<g>
			<g>
				
					<line fill="none" stroke="#1ABC9C" stroke-width="2" stroke-linecap="round" stroke-linejoin="round" x1="295.93" y1="284.242" x2="295.93" y2="280.742"/>
				
					<line fill="none" stroke="#1ABC9C" stroke-width="2" stroke-linecap="round" stroke-linejoin="round" x1="295.93" y1="275.366" x2="295.93" y2="271.866"/>
			</g>
		</g>
	</g>
	<g id="POLYLINE_707_">
		<g>
			<g>
				
					<line fill="none" stroke="#1ABC9C" stroke-width="2" stroke-linecap="round" stroke-linejoin="round" x1="423.162" y1="279.543" x2="423.162" y2="276.043"/>
				
					<line fill="none" stroke="#1ABC9C" stroke-width="2" stroke-linecap="round" stroke-linejoin="round" x1="423.162" y1="275.366" x2="423.162" y2="271.866"/>
			</g>
		</g>
	</g>
	<g id="POLYLINE_706_">
		<g>
			<g>
				
					<line fill="none" stroke="#1ABC9C" stroke-width="2" stroke-linecap="round" stroke-linejoin="round" x1="423.162" y1="373.885" x2="423.162" y2="370.385"/>
				
					<line fill="none" stroke="#1ABC9C" stroke-width="2" stroke-linecap="round" stroke-linejoin="round" stroke-dasharray="7.0793,7.0793" x1="423.162" y1="363.306" x2="423.162" y2="296.053"/>
				
					<line fill="none" stroke="#1ABC9C" stroke-width="2" stroke-linecap="round" stroke-linejoin="round" x1="423.162" y1="292.513" x2="423.162" y2="289.013"/>
			</g>
		</g>
	</g>
	<g id="POLYLINE_705_">
		<g>
			<g>
				
					<line fill="none" stroke="#1ABC9C" stroke-width="2" stroke-linecap="round" stroke-linejoin="round" x1="423.162" y1="470.645" x2="423.162" y2="467.145"/>
				
					<line fill="none" stroke="#1ABC9C" stroke-width="2" stroke-linecap="round" stroke-linejoin="round" stroke-dasharray="7.299,7.299" x1="423.162" y1="459.846" x2="423.162" y2="390.505"/>
				
					<line fill="none" stroke="#1ABC9C" stroke-width="2" stroke-linecap="round" stroke-linejoin="round" x1="423.162" y1="386.855" x2="423.162" y2="383.355"/>
			</g>
		</g>
	</g>
	<g id="POLYLINE_700_">
		<g>
			<g>
				
					<line fill="none" stroke="#1ABC9C" stroke-width="2" stroke-linecap="round" stroke-linejoin="round" x1="423.162" y1="564.987" x2="423.162" y2="561.487"/>
				
					<line fill="none" stroke="#1ABC9C" stroke-width="2" stroke-linecap="round" stroke-linejoin="round" stroke-dasharray="7.0793,7.0793" x1="423.162" y1="554.407" x2="423.162" y2="487.154"/>
				
					<line fill="none" stroke="#1ABC9C" stroke-width="2" stroke-linecap="round" stroke-linejoin="round" x1="423.162" y1="483.615" x2="423.162" y2="480.115"/>
			</g>
		</g>
	</g>
	<g id="POLYLINE_699_">
		<g>
			<g>
				
					<line fill="none" stroke="#1ABC9C" stroke-width="2" stroke-linecap="round" stroke-linejoin="round" x1="423.162" y1="582.134" x2="423.162" y2="578.634"/>
				
					<line fill="none" stroke="#1ABC9C" stroke-width="2" stroke-linecap="round" stroke-linejoin="round" x1="423.162" y1="577.957" x2="423.162" y2="574.457"/>
			</g>
		</g>
	</g>
	<g id="POLYLINE_698_">
		<g>
			
				<line fill="none" stroke="#1ABC9C" stroke-width="2" stroke-linecap="round" stroke-linejoin="round" stroke-dasharray="4.8327" x1="550.394" y1="276.699" x2="550.394" y2="271.866"/>
		</g>
	</g>
	<g id="POLYLINE_693_">
		<g>
			<g>
				
					<line fill="none" stroke="#1ABC9C" stroke-width="2" stroke-linecap="round" stroke-linejoin="round" x1="550.394" y1="348.466" x2="550.394" y2="344.966"/>
				
					<line fill="none" stroke="#1ABC9C" stroke-width="2" stroke-linecap="round" stroke-linejoin="round" stroke-dasharray="6.3373,6.3373" x1="550.394" y1="338.629" x2="550.394" y2="291.1"/>
				
					<line fill="none" stroke="#1ABC9C" stroke-width="2" stroke-linecap="round" stroke-linejoin="round" x1="550.394" y1="287.931" x2="550.394" y2="284.431"/>
			</g>
		</g>
	</g>
	<g id="POLYLINE_685_">
		<g>
			<g>
				
					<line fill="none" stroke="#1ABC9C" stroke-width="2" stroke-linecap="round" stroke-linejoin="round" x1="550.394" y1="497.801" x2="550.394" y2="494.301"/>
				
					<line fill="none" stroke="#1ABC9C" stroke-width="2" stroke-linecap="round" stroke-linejoin="round" stroke-dasharray="7.0843,7.0843" x1="550.394" y1="487.217" x2="550.394" y2="363.241"/>
				
					<line fill="none" stroke="#1ABC9C" stroke-width="2" stroke-linecap="round" stroke-linejoin="round" x1="550.394" y1="359.699" x2="550.394" y2="356.199"/>
			</g>
		</g>
	</g>
	<g id="POLYLINE_684_">
		<g>
			<g>
				
					<line fill="none" stroke="#1ABC9C" stroke-width="2" stroke-linecap="round" stroke-linejoin="round" x1="550.394" y1="569.569" x2="550.394" y2="566.069"/>
				
					<line fill="none" stroke="#1ABC9C" stroke-width="2" stroke-linecap="round" stroke-linejoin="round" stroke-dasharray="6.3373,6.3373" x1="550.394" y1="559.732" x2="550.394" y2="512.202"/>
				
					<line fill="none" stroke="#1ABC9C" stroke-width="2" stroke-linecap="round" stroke-linejoin="round" x1="550.394" y1="509.034" x2="550.394" y2="505.534"/>
			</g>
		</g>
	</g>
	<g id="POLYLINE_683_">
		<g>
			
				<line fill="none" stroke="#1ABC9C" stroke-width="2" stroke-linecap="round" stroke-linejoin="round" stroke-dasharray="4.8327" x1="550.394" y1="582.134" x2="550.394" y2="577.301"/>
		</g>
	</g>
	<g id="POLYLINE_682_">
		<g>
			<g>
				
					<line fill="none" stroke="#1ABC9C" stroke-width="2" stroke-linecap="round" stroke-linejoin="round" x1="677.626" y1="572.742" x2="677.626" y2="569.242"/>
				
					<line fill="none" stroke="#1ABC9C" stroke-width="2" stroke-linecap="round" stroke-linejoin="round" stroke-dasharray="5.4609,5.4609" x1="677.626" y1="563.781" x2="677.626" y2="544.668"/>
				
					<line fill="none" stroke="#1ABC9C" stroke-width="2" stroke-linecap="round" stroke-linejoin="round" x1="677.626" y1="541.938" x2="677.626" y2="538.438"/>
			</g>
		</g>
	</g>
	<g id="POLYLINE_681_">
		<g>
			
				<line fill="none" stroke="#1ABC9C" stroke-width="2" stroke-linecap="round" stroke-linejoin="round" stroke-dasharray="2.4593" x1="677.626" y1="582.134" x2="677.626" y2="579.675"/>
		</g>
	</g>
	<g id="POLYLINE_680_">
		<g>
			<g>
				
					<line fill="none" stroke="#1ABC9C" stroke-width="2" stroke-linecap="round" stroke-linejoin="round" x1="677.626" y1="531.505" x2="677.626" y2="528.005"/>
				
					<line fill="none" stroke="#1ABC9C" stroke-width="2" stroke-linecap="round" stroke-linejoin="round" stroke-dasharray="6.9659,6.9659" x1="677.626" y1="521.039" x2="677.626" y2="329.478"/>
				
					<line fill="none" stroke="#1ABC9C" stroke-width="2" stroke-linecap="round" stroke-linejoin="round" x1="677.626" y1="325.995" x2="677.626" y2="322.495"/>
			</g>
		</g>
	</g>
	<g id="POLYLINE_679_">
		<g>
			<g>
				
					<line fill="none" stroke="#1ABC9C" stroke-width="2" stroke-linecap="round" stroke-linejoin="round" x1="677.626" y1="315.562" x2="677.626" y2="312.062"/>
				
					<line fill="none" stroke="#1ABC9C" stroke-width="2" stroke-linecap="round" stroke-linejoin="round" stroke-dasharray="5.4609,5.4609" x1="677.626" y1="306.601" x2="677.626" y2="287.488"/>
				
					<line fill="none" stroke="#1ABC9C" stroke-width="2" stroke-linecap="round" stroke-linejoin="round" x1="677.626" y1="284.758" x2="677.626" y2="281.258"/>
			</g>
		</g>
	</g>
	<g id="POLYLINE_678_">
		<g>
			
				<line fill="none" stroke="#1ABC9C" stroke-width="2" stroke-linecap="round" stroke-linejoin="round" stroke-dasharray="2.4593" x1="677.626" y1="274.325" x2="677.626" y2="271.866"/>
		</g>
	</g>
	<g id="POLYLINE_677_">
		<g>
			<g>
				
					<line fill="none" stroke="#1ABC9C" stroke-width="2" stroke-linecap="round" stroke-linejoin="round" x1="804.858" y1="568.741" x2="804.858" y2="565.241"/>
				
					<line fill="none" stroke="#1ABC9C" stroke-width="2" stroke-linecap="round" stroke-linejoin="round" stroke-dasharray="7.0893,7.0893" x1="804.858" y1="558.152" x2="804.858" y2="292.304"/>
				
					<line fill="none" stroke="#1ABC9C" stroke-width="2" stroke-linecap="round" stroke-linejoin="round" x1="804.858" y1="288.759" x2="804.858" y2="285.259"/>
			</g>
		</g>
	</g>
	<g id="POLYLINE_676_">
		<g>
			<g>
				
					<line fill="none" stroke="#1ABC9C" stroke-width="2" stroke-linecap="round" stroke-linejoin="round" x1="784.769" y1="582.134" x2="784.769" y2="578.634"/>
				
					<line fill="none" stroke="#1ABC9C" stroke-width="2" stroke-linecap="round" stroke-linejoin="round" stroke-dasharray="7.0527,7.0527" x1="784.769" y1="571.581" x2="784.769" y2="278.892"/>
				
					<line fill="none" stroke="#1ABC9C" stroke-width="2" stroke-linecap="round" stroke-linejoin="round" x1="784.769" y1="275.366" x2="784.769" y2="271.866"/>
			</g>
		</g>
	</g>
	<g id="POLYLINE_674_">
		<g>
			<g>
				
					<line fill="none" stroke="#1ABC9C" stroke-width="2" stroke-linecap="round" stroke-linejoin="round" x1="657.537" y1="582.134" x2="657.537" y2="578.634"/>
				
					<line fill="none" stroke="#1ABC9C" stroke-width="2" stroke-linecap="round" stroke-linejoin="round" stroke-dasharray="7.0527,7.0527" x1="657.537" y1="571.581" x2="657.537" y2="278.892"/>
				
					<line fill="none" stroke="#1ABC9C" stroke-width="2" stroke-linecap="round" stroke-linejoin="round" x1="657.537" y1="275.366" x2="657.537" y2="271.866"/>
			</g>
		</g>
	</g>
	<g id="POLYLINE_670_">
		<g>
			<g>
				
					<line fill="none" stroke="#1ABC9C" stroke-width="2" stroke-linecap="round" stroke-linejoin="round" x1="530.305" y1="582.134" x2="530.305" y2="578.634"/>
				
					<line fill="none" stroke="#1ABC9C" stroke-width="2" stroke-linecap="round" stroke-linejoin="round" stroke-dasharray="7.0527,7.0527" x1="530.305" y1="571.581" x2="530.305" y2="278.892"/>
				
					<line fill="none" stroke="#1ABC9C" stroke-width="2" stroke-linecap="round" stroke-linejoin="round" x1="530.305" y1="275.366" x2="530.305" y2="271.866"/>
			</g>
		</g>
	</g>
	<g id="POLYLINE_669_">
		<g>
			<g>
				
					<line fill="none" stroke="#1ABC9C" stroke-width="2" stroke-linecap="round" stroke-linejoin="round" x1="403.073" y1="582.134" x2="403.073" y2="578.634"/>
				
					<line fill="none" stroke="#1ABC9C" stroke-width="2" stroke-linecap="round" stroke-linejoin="round" stroke-dasharray="7.0527,7.0527" x1="403.073" y1="571.581" x2="403.073" y2="278.892"/>
				
					<line fill="none" stroke="#1ABC9C" stroke-width="2" stroke-linecap="round" stroke-linejoin="round" x1="403.073" y1="275.366" x2="403.073" y2="271.866"/>
			</g>
		</g>
	</g>
	<g id="POLYLINE_662_">
		<g>
			<g>
				
					<line fill="none" stroke="#1ABC9C" stroke-width="2" stroke-linecap="round" stroke-linejoin="round" x1="275.84" y1="582.134" x2="275.84" y2="578.634"/>
				
					<line fill="none" stroke="#1ABC9C" stroke-width="2" stroke-linecap="round" stroke-linejoin="round" stroke-dasharray="7.0527,7.0527" x1="275.84" y1="571.581" x2="275.84" y2="278.892"/>
				
					<line fill="none" stroke="#1ABC9C" stroke-width="2" stroke-linecap="round" stroke-linejoin="round" x1="275.84" y1="275.366" x2="275.84" y2="271.866"/>
			</g>
		</g>
	</g>
	<g id="POLYLINE_657_">
		<g>
			<g>
				
					<line fill="none" stroke="#1ABC9C" stroke-width="2" stroke-linecap="round" stroke-linejoin="round" x1="148.608" y1="271.866" x2="148.608" y2="275.366"/>
				
					<line fill="none" stroke="#1ABC9C" stroke-width="2" stroke-linecap="round" stroke-linejoin="round" stroke-dasharray="7.0527,7.0527" x1="148.608" y1="282.419" x2="148.608" y2="575.108"/>
				
					<line fill="none" stroke="#1ABC9C" stroke-width="2" stroke-linecap="round" stroke-linejoin="round" x1="148.608" y1="578.634" x2="148.608" y2="582.134"/>
			</g>
		</g>
	</g>
	<g id="POLYLINE_656_">
		<g>
			<g>
				
					<line fill="none" stroke="#1ABC9C" stroke-width="2" stroke-linecap="round" stroke-linejoin="round" x1="168.698" y1="582.134" x2="168.698" y2="578.634"/>
				
					<line fill="none" stroke="#1ABC9C" stroke-width="2" stroke-linecap="round" stroke-linejoin="round" stroke-dasharray="7.0527,7.0527" x1="168.698" y1="571.581" x2="168.698" y2="278.892"/>
				
					<line fill="none" stroke="#1ABC9C" stroke-width="2" stroke-linecap="round" stroke-linejoin="round" x1="168.698" y1="275.366" x2="168.698" y2="271.866"/>
			</g>
		</g>
	</g>
</g>
<g id="AG-PEOPLE">
	<g id="POLYLINE_637_">
		
			<path fill="none" stroke="#1ABC9C" stroke-width="2.5" stroke-linecap="round" stroke-linejoin="round" stroke-miterlimit="10" d="
			M1228.373,488.905c-3.922-2.147-6.725-5.472-9.323-9.032c-3.089-4.233-6.155-8.478-9.273-12.69
			c-1.278-1.727-2.582-3.44-3.963-5.086c-0.849-1.012-2.027-2.76-3.406-3.129c-1.337-0.359-3.07,0.734-4.193,1.325
			c-1.29,0.679-2.631,1.224-1.76,2.854c0.947,1.772,2.316,3.343,3.4,5.035c1.243,1.94,2.408,3.929,3.583,5.91
			c2.53,4.262,5.009,8.565,7.895,12.601c2.652,3.709,5.643,7.086,9.223,9.921c1.918,1.519,3.94,2.902,5.875,4.399
			c1.884,1.458,3.566,3.143,5.408,4.649c1.732,1.416,3.68,2.518,5.94,2.724c3.003,0.274,6.047-1.014,8.58-2.5
			c0.924-0.542,1.779-1.172,2.603-1.854"/>
	</g>
	<g id="POLYLINE_290_">
		
			<path fill="none" stroke="#1ABC9C" stroke-width="2.5" stroke-linecap="round" stroke-linejoin="round" stroke-miterlimit="10" d="
			M1223.316,481.288c-3.293-3.123-6.718-7.167-7.603-11.761c-0.375-1.949-0.055-4.215,2.164-4.801
			c1.68-0.444,3.458,0.271,4.936,1.03c2.648,1.362,5.15,3.238,7.329,5.258"/>
	</g>
	<g id="POLYLINE_289_">
		
			<path fill="none" stroke="#1ABC9C" stroke-width="2.5" stroke-linecap="round" stroke-linejoin="round" stroke-miterlimit="10" d="
			M1262.132,456.836c-1.81-1.738-4.304-3.545-6.952-3.437c-3.089,0.126-5.619,2.752-8.071,4.297
			c-3.735,2.353-7.908,3.87-11.361,6.685c-3.408,2.779-5.541,6.431-7.651,10.217c-1.518,2.723-2.887,5.443-5.528,7.22
			c-0.449,0.302-0.909,0.589-1.358,0.892"/>
	</g>
	<g id="POLYLINE_288_">
		
			<path fill="none" stroke="#1ABC9C" stroke-width="2.5" stroke-linecap="round" stroke-linejoin="round" stroke-miterlimit="10" d="
			M1250.923,455.069c-3.199-3.868-7.743-6.585-12.761-7.218c-1.596-0.201-4.129-0.356-4.865,1.452
			c-0.587,1.443,0.138,3.238,0.784,4.54c1.44,2.901,3.655,5.505,6.153,7.548"/>
	</g>
	<g id="POLYLINE_287_">
		
			<path fill="none" stroke="#1ABC9C" stroke-width="2.5" stroke-linecap="round" stroke-linejoin="round" stroke-miterlimit="10" d="
			M1235.645,496.463c0.976,0.792,2.089,1.368,3.113,2.089c1.175,0.828,2.118,1.919,3.124,2.935c0.587,0.593,1.202,1.209,1.927,1.636
			c1.123,0.66,2.403,0.56,3.652,0.685c1.531,0.153,3.019,0.576,4.542,0.783c0.823,0.112,1.859,0.26,2.616-0.163
			c1.009-0.564,1.297-2.044,1.797-2.997c0.467-0.889,1.031-1.745,1.713-2.484c1.372-1.485,3.006-1.503,4.901-1.819
			c2.311-0.386,4.684-1.272,6.639-2.57c0.938-0.623,1.849-1.406,2.152-2.532c0.218-0.811,0.121-1.667,0.1-2.492
			c-0.047-1.932,0.722-3.775,0.668-5.693c-0.045-1.625-1.126-2.984-1.402-4.57c-0.405-2.325,0.021-5.228-2.311-6.659
			c-2.15-1.32-4.846-1.464-7.14-2.466c-2.162-0.944-3.657-2.763-5.646-3.959c-2.172-1.306-3.975,0.149-5.915,1.14
			c-1.931,0.987-3.854,0.813-5.957,0.632c-2.372-0.204-4.745-0.376-6.953,0.678c-2.307,1.101-4.264,3.109-5.67,5.212
			c-0.842,1.26-1.49,2.66-1.693,4.172c-0.29,2.161,0.436,4.267,0.642,6.401c0.147,1.522-0.321,3.032-0.109,4.544
			c0.252,1.795,1.434,3.44,2.552,4.805C1233.785,494.746,1234.669,495.665,1235.645,496.463z"/>
	</g>
	<g id="POLYLINE_286_">
		
			<path fill="none" stroke="#1ABC9C" stroke-width="2.5" stroke-linecap="round" stroke-linejoin="round" stroke-miterlimit="10" d="
			M1272.018,481.708c1.456-2.284,2.738-4.591,3.594-7.173c0.845-2.547,1.427-5.186,1.87-7.83c0.441-2.629,0.718-5.281,0.804-7.945
			c0.092-2.858-0.008-5.722,0.189-8.576c0.188-2.727,0.847-5.401,0.997-8.129c0.09-1.635-0.072-3.295-1.117-4.628
			c-2.043-2.606-6.007-3.246-9.044-3.674c-5.773-0.813-11.628-1.008-17.428-1.575c-2.895-0.283-5.8-0.58-8.661-1.117
			c-2.081-0.391-4.22-1.21-6.351-1.223c-2.054-0.012-1.67,1.989-2.049,3.464c-0.215,0.839-0.755,1.913-0.44,2.793
			c0.272,0.761,1.14,1.131,1.841,1.397c2.443,0.925,5.202,1.29,7.742,1.845c2.834,0.619,5.671,1.228,8.491,1.908
			c3.197,0.771,6.382,1.595,9.577,2.375c1.115,0.272,2.253,0.468,3.361,0.769c0.793,0.216,1.593,0.492,1.164,1.429
			c-0.368,0.804-1.001,1.482-1.418,2.266c-0.545,1.025-0.952,2.119-1.321,3.218c-0.948,2.819-1.743,5.696-2.545,8.559
			c-0.346,1.234-0.645,2.475-0.919,3.727"/>
	</g>
	<g id="POLYLINE_285_">
		
			<path fill="none" stroke="#1ABC9C" stroke-width="2.5" stroke-linecap="round" stroke-linejoin="round" stroke-miterlimit="10" d="
			M1242.298,467.812c1.536-2.412,3.369-4.388,6.005-5.577c2.283-1.03,4.839-1.376,7.265-0.649c1.667,0.499,3.132,1.47,4.788,1.998"
			/>
	</g>
	<g id="POLYLINE_284_">
		
			<path fill="none" stroke="#1ABC9C" stroke-width="2.5" stroke-linecap="round" stroke-linejoin="round" stroke-miterlimit="10" d="
			M1226.781,487.939c0.9-2.251,1.954-4.429,3.294-6.453"/>
	</g>
	<g id="POLYLINE_283_">
		
			<path fill="none" stroke="#1ABC9C" stroke-width="2.5" stroke-linecap="round" stroke-linejoin="round" stroke-miterlimit="10" d="
			M1196.574,461.242c-2.639-2.934-4.963-6.491-5.758-10.407c-0.346-1.706-0.851-6.556,1.604-7.002
			c1.533-0.278,2.331,1.061,3.016,2.151c0.266,0.423,1.456,2.234,2.019,1.751c0.369-0.317-0.007-1.275,0.279-1.699
			c0.421-0.622,1.316-0.058,1.729,0.311c1.267,1.132,0.532,2.857,0.448,4.301c-0.155,2.64,0.675,5.337,2.082,7.556
			c0.175,0.275,0.359,0.544,0.552,0.807"/>
	</g>
	<g id="POLYLINE_282_">
		
			<path fill="none" stroke="#1ABC9C" stroke-width="2.5" stroke-linecap="round" stroke-linejoin="round" stroke-miterlimit="10" d="
			M1234.513,436.364c-2.049-0.812-4.37-0.42-6.509-0.433c-1.71-0.01-4.131-0.095-5.196-1.688c-0.945-1.413-0.281-3.54,0.424-4.928
			c0.791-1.558,1.999-2.314,3.722-1.921c1.265,0.288,2.469,0.866,3.664,1.353c1.556,0.634,3.155,1.161,4.688,1.853"/>
	</g>
</g>
<g id="AG-TRANSPORT">
</g>
<g id="AG-OUTLINE">
	<g id="POLYLINE_281_">
		
			<path fill="none" stroke="#1ABC9C" stroke-width="3.25" stroke-linecap="round" stroke-linejoin="round" stroke-miterlimit="10" d="
			M1248.964,504.033c1.447,0.279,2.964,0.706,4.453,0.66c1.649-0.051,2.064-1.263,2.668-2.585c0.903-1.976,2.348-4.258,4.651-4.682
			c1.504-0.277,2.969-0.364,4.44-0.821c1.522-0.473,3.03-1.102,4.372-1.969c1.18-0.762,2.206-1.727,2.375-3.183
			c0.121-1.039-0.068-2.088,0.025-3.13c0.127-1.424,0.612-2.808,0.639-4.242c0.009-0.478-0.053-0.94-0.192-1.398
			c-0.071-0.235-0.36-0.679-0.355-0.92c0.008-0.379,0.677-1.156,0.89-1.505c2.178-3.557,3.368-7.483,4.182-11.551
			c0.797-3.983,1.17-7.995,1.21-12.054c0.023-2.338-0.002-4.685,0.193-7.016c0.182-2.179,0.633-4.323,0.865-6.497
			c0.259-2.432,0.129-4.901-1.876-6.583c-2.13-1.788-5.162-2.35-7.82-2.75c-4.853-0.729-9.8-0.953-14.686-1.362
			c-4.07-0.341-8.171-0.67-12.183-1.463c-1.818-0.36-3.629-0.954-5.479-1.118c-0.432-0.038-0.916-0.074-1.33,0.077
			c-0.293,0.107-0.554,0.581-0.734,0.627c-0.256,0.067-1.039-0.425-1.291-0.525c-2.003-0.797-4.018-1.665-6.057-2.362
			c-0.814-0.278-1.762-0.565-2.624-0.352c-2.126,0.527-3.365,4.257-2.827,6.18c0.86,3.076,5.902,2.428,8.201,2.377
			c1.094-0.024,2.649-0.14,3.661,0.411c0.519,0.282,0.907,0.773,1.493,1.034c0.575,0.255,1.185,0.431,1.792,0.591
			c4.553,1.202,9.218,2.017,13.807,3.082c4.468,1.037,8.9,2.224,13.373,3.242c0.513,0.117,1.36,0.216,1.726,0.627
			c0.411,0.46,0.023,0.989-0.254,1.423c-0.921,1.443-1.687,2.823-2.262,4.45c-0.708,2.002-1.274,4.057-1.878,6.092
			c-1.837-1.764-4.395-3.612-7.09-3.429c-0.655,0.044-1.293,0.22-1.9,0.464c-0.648,0.26-1.23,0.619-1.837,0.957
			c-0.321,0.179-0.254,0.219-0.53,0.064c-0.168-0.094-0.358-0.417-0.489-0.563c-0.32-0.356-0.652-0.703-0.995-1.037
			c-2.837-2.761-6.472-4.644-10.377-5.327c-1.261-0.221-2.656-0.371-3.911-0.034c-1.679,0.451-2.107,1.941-1.791,3.518
			c0.672,3.36,3.31,6.521,5.726,8.802c0.419,0.396,0.853,0.775,1.298,1.14c-4.229,2.391-7.555,5.465-10.094,9.623
			c-1.986-1.842-4.231-3.514-6.586-4.855c-1.512-0.861-3.334-1.75-5.128-1.537c-5.123,0.608-2.117,7.497-0.606,10.006
			c1.49,2.475,3.405,4.677,5.496,6.659c-0.155,0-0.566,0.407-0.703,0.5c-0.333,0.226-0.69,0.534-1.058,0.693
			c-0.516,0.222-0.398,0.167-0.805-0.35c-0.243-0.309-0.482-0.621-0.719-0.934c-1.035-1.366-2.022-2.77-3.024-4.16
			c-2.291-3.177-4.617-6.326-6.948-9.474c-1.816-2.453-3.632-4.972-5.756-7.172c-0.615-0.638-1.534-1.09-2.031-1.764
			c-0.575-0.782-1.029-1.686-1.395-2.582c-0.749-1.833-1.137-3.879-0.927-5.858c0.114-1.074,0.573-2.363-0.063-3.358
			c-0.42-0.657-1.922-1.728-2.247-0.484c-0.085,0.327,0.09,1.157-0.182,1.39c-0.34,0.292-0.842-0.282-1.074-0.518
			c-0.541-0.55-0.914-1.198-1.316-1.85c-0.499-0.81-1.17-1.479-2.176-1.55c-1.284-0.091-1.83,1.084-2.091,2.163
			c-1.145,4.737,1.376,9.616,4.147,13.293c0.513,0.68,1.056,1.337,1.626,1.971c-1.523,1.227,1.527,4.319,2.182,5.274
			c1.679,2.449,3.169,5.024,4.684,7.576c3.216,5.419,6.359,10.929,10.349,15.83c1.765,2.169,3.704,4.182,5.862,5.962
			c2.357,1.944,4.907,3.635,7.298,5.534c3.08,2.446,5.811,5.997,9.856,6.825c3.647,0.746,7.568-0.965,10.526-2.966
			C1247.899,504.893,1248.438,504.471,1248.964,504.033z"/>
	</g>
</g>
</svg>
